<?xml version="1.0" standalone="no"?>
<!DOCTYPE svg PUBLIC "-//W3C//DTD SVG 1.1//EN" "http://www.w3.org/Graphics/SVG/1.1/DTD/svg11.dtd" >
<svg xmlns="http://www.w3.org/2000/svg" xmlns:xlink="http://www.w3.org/1999/xlink" version="1.1">
<metadata></metadata>
<defs>
<font id="exo_2light_condensed" horiz-adv-x="1099" >
<font-face units-per-em="2048" ascent="1638" descent="-410" />
<missing-glyph horiz-adv-x="368" />
<glyph unicode="&#xfb01;" horiz-adv-x="989" d="M47 887v94l146 10v176q0 150 53.5 224.5t177.5 74.5q104 0 184 -12v-96h-139q-81 0 -113 -45t-32 -158v-164h528v-991h-129v887h-399v-887h-131v887h-146zM715 1247v119q0 43 41 43h61q41 0 41 -43v-119q0 -43 -41 -43h-61q-41 0 -41 43z" />
<glyph unicode="&#xfb02;" horiz-adv-x="1093" d="M47 887v94l146 10v176q0 150 53.5 224.5t177.5 74.5q314 0 450 -20v-1213q0 -145 109 -145h82l14 -84q-52 -20 -143 -20q-90 0 -142.5 59.5t-52.5 165.5v1149h-272q-81 1 -113 -43.5t-32 -159.5v-164h243v-104h-243v-887h-131v887h-146z" />
<glyph horiz-adv-x="0" />
<glyph horiz-adv-x="682" />
<glyph unicode=" "  horiz-adv-x="368" />
<glyph unicode="&#x09;" horiz-adv-x="368" />
<glyph unicode="&#xa0;" horiz-adv-x="368" />
<glyph unicode="!" horiz-adv-x="448" d="M158 51v117q0 28 11 39.5t38 11.5h35q26 0 37.5 -11.5t11.5 -39.5v-117q0 -28 -11.5 -39.5t-37.5 -11.5h-35q-27 0 -38 11.5t-11 39.5zM158 772v651h131v-651l-13 -346h-106z" />
<glyph unicode="&#x22;" horiz-adv-x="577" d="M119 1413h106l-8 -434h-90zM352 1413h109l-10 -434h-91z" />
<glyph unicode="#" horiz-adv-x="1126" d="M76 446l16 89h187l55 399h-189l17 88h184l55 391h107l-55 -391h307l55 391h107l-56 -391h185l-19 -88h-178l-55 -399h182l-18 -89h-177l-61 -446h-107l62 446h-307l-64 -446h-104l61 446h-190zM385 535h309l56 399h-310z" />
<glyph unicode="$" horiz-adv-x="929" d="M96 1069q0 83 9 143t30.5 101t49 65.5t72 37.5t91 17t115.5 3h18l13 204h69l-12 -206q137 -7 248 -31l-11 -98q-205 11 -243 12l-31 -547l98 -27q127 -32 178.5 -122t51.5 -265q0 -82 -9 -142.5t-31 -102.5t-50 -68t-73.5 -41t-94.5 -20t-119 -5h-6l-15 -243h-71l14 246 q-143 4 -274 28l8 105q167 -10 274 -13l33 557l-109 29q-120 30 -171.5 121.5t-51.5 261.5zM231 1065q0 -127 34.5 -183t115.5 -77l63 -17l31 529h-6q-50 0 -77 -1.5t-59 -9.5t-47.5 -23.5t-30 -43.5t-19.5 -70.5t-5 -103.5zM467 100h2q72 1 113 10t71 37t41 77.5t11 133.5 q0 91 -16 145t-46.5 80t-85.5 40l-57 16z" />
<glyph unicode="%" horiz-adv-x="1470" d="M80 1020q0 224 59 321t203 97q146 0 205 -96.5t59 -321.5t-59 -321.5t-205 -96.5q-144 0 -203 97t-59 321zM180 1020q0 -184 35.5 -259t126.5 -75t126.5 75t35.5 259q0 183 -35.5 258.5t-126.5 75.5t-126.5 -75.5t-35.5 -258.5zM315 0l742 1413h94l-741 -1413h-95z M866 401q0 225 58.5 322.5t203.5 97.5q144 0 203.5 -97.5t59.5 -322.5q0 -224 -59 -320.5t-204 -96.5t-203.5 96t-58.5 321zM967 401q0 -185 34 -259t125 -74q93 0 128.5 74.5t35.5 258.5t-35.5 259t-128.5 75q-91 0 -125 -74.5t-34 -259.5z" />
<glyph unicode="&#x26;" horiz-adv-x="1275" d="M113 356q0 172 51 266t172 107v8q-102 10 -146.5 91.5t-44.5 238.5q0 82 10 141t35 99.5t56.5 65t84 37.5t107 17.5t137.5 4.5q144 0 263 -19l-17 -100q-65 6 -250 6q-88 0 -137.5 -8.5t-86 -37t-49.5 -81t-13 -141.5q0 -108 21.5 -165t68.5 -79.5t135 -22.5h315l15 283 h108v-283h209l-2 -104h-207v-436q0 -77 25.5 -111.5t83.5 -34.5h123l14 -94q-82 -20 -170 -20t-139 47t-60 135q-72 -101 -160.5 -142.5t-220.5 -41.5q-181 0 -256 81.5t-75 292.5zM254 377q0 -160 47.5 -219.5t173.5 -59.5q115 0 199 44.5t149 138.5v399h-319 q-139 0 -194.5 -64.5t-55.5 -238.5z" />
<glyph unicode="'" horiz-adv-x="342" d="M119 1413h106l-8 -434h-90z" />
<glyph unicode="(" horiz-adv-x="591" d="M92 639q0 394 103.5 631.5t324.5 347.5l17 -68q-164 -105 -241 -328t-77 -581q0 -352 77 -576t241 -335l-17 -68q-221 112 -324.5 349t-103.5 628z" />
<glyph unicode=")" horiz-adv-x="591" d="M55 -270q164 111 241 335t77 576q0 358 -77 581t-241 328l17 68q221 -110 325.5 -348t104.5 -631q0 -390 -104.5 -627.5t-325.5 -349.5z" />
<glyph unicode="*" horiz-adv-x="743" d="M92 1145l25 80l198 -92l-2 -37l-16 -25zM178 829l164 263l-10 321h80l-13 -321l164 -265l-63 -51l-129 256l-127 -254zM428 1096v37l197 90l26 -82l-207 -70z" />
<glyph unicode="+" horiz-adv-x="907" d="M94 561v101h307v368h103v-368h309v-101h-309v-371h-101v371h-309z" />
<glyph unicode="," horiz-adv-x="372" d="M117 43v125q1 28 13 39.5t38 11.5h39q27 0 38 -11.5t11 -39.5v-131q-3 -160 -55 -295l-64 18q17 116 17 240q-37 0 -37 43z" />
<glyph unicode="-" horiz-adv-x="745" d="M121 465v102h504v-102h-504z" />
<glyph unicode="." horiz-adv-x="374" d="M117 51v117q0 28 11 39.5t38 11.5h43q27 0 38 -11.5t11 -39.5v-117q0 -28 -11 -39.5t-38 -11.5h-43q-27 0 -38 11.5t-11 39.5z" />
<glyph unicode="/" horiz-adv-x="847" d="M45 -129l647 1542h111l-647 -1542h-111z" />
<glyph unicode="0" horiz-adv-x="991" d="M106 707q0 389 88 560t302 171q213 0 301 -171t88 -560t-88 -560.5t-301 -171.5t-301.5 171.5t-88.5 560.5zM240 707q0 -331 57 -473t197 -142q145 0 201.5 141t56.5 474t-56.5 473.5t-201.5 140.5q-140 0 -197 -141.5t-57 -472.5z" />
<glyph unicode="1" horiz-adv-x="671" d="M57 1266l291 147h135v-1413h-135v1171q0 57 6 113l-280 -115z" />
<glyph unicode="2" horiz-adv-x="925" d="M92 0v82q0 26 21 61l336 500q111 160 161 275.5t47 222.5q-1 58 -16 95t-46.5 54.5t-66 23t-90.5 5.5q-158 0 -325 -39l-11 104q187 54 344 54q87 0 146 -11.5t108 -43t72 -91t23 -151.5q0 -135 -46.5 -252t-162.5 -279l-334 -487q59 4 190 4h394v-127h-744z" />
<glyph unicode="3" horiz-adv-x="917" d="M88 10l10 107q213 -23 316 -23q140 0 199 70.5t59 241.5q0 65 -10 113t-34.5 88.5t-71.5 62t-116 22.5h-211v105l211 2q54 1 92.5 19t60 44.5t33.5 66.5t15 75t2 81q-1 142 -50 188t-187 46q-143 0 -287 -19l-13 103q169 35 318 35q191 0 270.5 -71.5t79.5 -254.5 q0 -314 -170 -356v-8q73 -15 118.5 -65t63 -120t19.5 -170q3 -217 -80 -317.5t-279 -100.5q-138 0 -358 35z" />
<glyph unicode="4" horiz-adv-x="1011" d="M80 563l328 850h133l-322 -848q-14 -38 -1.5 -63t42.5 -25h404v432l24 236h105v-668h143v-96l-143 -14v-367h-129v367h-478q-68 0 -101 62.5t-5 133.5z" />
<glyph unicode="5" horiz-adv-x="880" d="M88 29l16 106q167 -41 289 -41q80 0 132.5 21.5t80 66.5t38 100t11.5 138q1 88 -14.5 144.5t-38.5 90.5t-80.5 51.5t-109.5 23.5t-158 11l-70 7q-23 0 -38 17.5t-15 43.5l27 604h598l-6 -115h-482l-16 -440l119 -8q118 -8 193 -30t127.5 -71t74.5 -128t22 -201 q0 -74 -7.5 -133t-31 -119.5t-62.5 -101t-106 -66t-157 -25.5q-149 0 -336 54z" />
<glyph unicode="6" horiz-adv-x="942" d="M113 651q0 146 9 259t25 196.5t44 141.5t61 95.5t81 58.5t98.5 28.5t119.5 7.5q135 0 225 -29l-12 -98q-72 12 -213 12q-68 0 -113 -12.5t-83 -46.5t-59.5 -97.5t-34 -162t-15.5 -244.5q62 88 127 121.5t164 33.5q178 0 245.5 -103.5t67.5 -367.5q0 -93 -8 -160 t-30.5 -128.5t-61.5 -99t-103.5 -59.5t-154.5 -22q-80 0 -138 14t-101 48.5t-69.5 83.5t-42.5 128.5t-22 173.5t-6 228zM244 645q0 -85 1.5 -143t5.5 -117.5t11.5 -97.5t20.5 -74.5t31 -57t44 -36.5t59.5 -22.5t76.5 -6.5q59 0 100.5 16t65.5 43t37.5 74.5t17.5 97.5t4 125 q0 200 -44.5 279.5t-170.5 79.5q-75 0 -132.5 -30.5t-127.5 -112.5v-17z" />
<glyph unicode="7" horiz-adv-x="821" d="M35 1413h643q50 0 68.5 -28t3.5 -82l-357 -1303h-135l326 1204q9 34 32 94h-573z" />
<glyph unicode="8" horiz-adv-x="1001" d="M117 352q0 179 41.5 271.5t144.5 105.5v8q-162 23 -162 324q0 100 16 166.5t56.5 114t110.5 69t176 21.5q108 0 178 -21t110.5 -69t56 -114t15.5 -167q0 -302 -164 -324v-8q103 -13 146 -106t43 -271q0 -103 -16.5 -168.5t-59.5 -112.5t-117.5 -67t-191.5 -22 q-114 -1 -188.5 19.5t-117.5 67.5t-60 114t-17 169zM244 377q0 -159 53 -219t205 -60q79 0 128 14t77.5 48.5t38.5 84.5t10 132q0 66 -4 111.5t-16 80.5t-29 55t-47 32.5t-66 17t-90 4.5q-83 -1 -130 -12t-78.5 -45.5t-41.5 -90t-10 -153.5zM264 1051q0 -68 7 -112t21.5 -75 t44 -47t68 -22.5t99.5 -6.5q77 0 120 10t69 41t34 78.5t8 133.5q0 80 -9 128.5t-34.5 82t-70.5 46.5t-119 13q-142 0 -190 -57t-48 -213z" />
<glyph unicode="9" horiz-adv-x="942" d="M92 958q0 243 82 361.5t279 118.5q63 0 111.5 -8t87 -28t65.5 -46.5t46.5 -72t31.5 -95t18.5 -124.5t9 -152.5t2.5 -186.5q-1 -161 -11 -277.5t-34 -200.5t-56 -136.5t-83.5 -83t-110 -41.5t-141.5 -11q-144 0 -242 29l13 98q98 -10 227 -10q71 0 117.5 13.5t84.5 48 t59 99t32.5 162t13.5 240.5q-62 -89 -128 -123t-167 -34q-166 0 -236.5 118.5t-70.5 341.5zM221 956q0 -178 46.5 -264t166.5 -86q74 0 131 31.5t129 116.5q0 74 -0.5 122t-2.5 103.5t-5.5 89.5t-10 72.5t-16 60.5t-23 45.5t-30.5 35t-40 22.5t-50.5 14.5t-62.5 3.5 q-71 0 -117.5 -24t-71 -74t-34 -113t-9.5 -156z" />
<glyph unicode=":" horiz-adv-x="382" d="M117 51v117q0 28 11 39.5t38 11.5h45q26 0 37.5 -11.5t11.5 -39.5v-117q0 -28 -11.5 -39.5t-37.5 -11.5h-45q-27 0 -38 11.5t-11 39.5zM117 727v117q0 28 11 39.5t38 11.5h45q26 0 37.5 -11.5t11.5 -39.5v-117q0 -28 -11.5 -39.5t-37.5 -11.5h-45q-27 0 -38 11.5 t-11 39.5z" />
<glyph unicode=";" horiz-adv-x="387" d="M123 727v117q0 28 11.5 39.5t39.5 11.5h43q26 0 37.5 -11.5t11.5 -39.5v-117q0 -28 -11.5 -39.5t-37.5 -11.5h-43q-28 0 -39.5 11.5t-11.5 39.5zM125 43v125q1 28 13 39.5t38 11.5h39q27 0 37 -11.5t10 -39.5v-131q-3 -165 -53 -295l-64 18q17 139 17 240q-37 0 -37 43z " />
<glyph unicode="&#x3c;" horiz-adv-x="876" d="M90 555v104l668 365v-106l-553 -310l553 -301v-106z" />
<glyph unicode="=" horiz-adv-x="964" d="M123 332v100h719v-100h-719zM123 764v100h719v-100h-719z" />
<glyph unicode="&#x3e;" horiz-adv-x="876" d="M119 201v106l553 301l-553 310v106l667 -365v-104z" />
<glyph unicode="?" horiz-adv-x="831" d="M68 1417q15 3 51 10.5t50 10.5t46.5 8t58 7t65.5 3.5t87 1.5q167 0 250.5 -78t83.5 -239q0 -63 -16 -118t-42 -97.5t-57.5 -83t-63.5 -83.5t-58.5 -89t-44 -109t-19.5 -135h-113q-1 78 13.5 146t39 117t53.5 93t59 83t54.5 76.5t40.5 84t17 96.5q2 116 -52 171t-172 55 q-47 0 -83 -1t-71 -4t-51.5 -5t-59 -7.5t-58.5 -7.5zM336 51v117q0 28 11 39.5t38 11.5h35q26 0 37.5 -11.5t11.5 -39.5v-117q0 -28 -11.5 -39.5t-37.5 -11.5h-35q-27 0 -38 11.5t-11 39.5z" />
<glyph unicode="@" horiz-adv-x="1177" d="M127 543q0 114 2.5 190t11.5 147.5t21.5 113.5t38 80t56 56t80 32t105 18t136.5 4h235q121 0 182.5 -64t61.5 -209v-643h-96l-15 158q-52 -65 -144.5 -118.5t-187.5 -53.5q-98 0 -156.5 60t-58.5 173v107q0 99 48.5 153t140.5 54h346v106q0 86 -31.5 127t-111.5 41h-213 q-61 0 -97.5 -1.5t-75.5 -10.5t-58.5 -22t-40.5 -42t-29 -64t-16 -94.5t-9.5 -127.5t-1.5 -168q0 -83 1 -142.5t6.5 -114.5t10.5 -91t18.5 -69t26 -51.5t38 -34.5t48 -23t63 -12t76 -6t93.5 -1h424v-98q-229 -13 -422 -13q-72 -1 -125 0.5t-102.5 9.5t-83 18t-64 31.5 t-49.5 46t-35 65t-24 83.5t-14 107.5t-7.5 131.5t-1.5 161zM522 508q0 -148 115 -148q72 -2 156 40t141 108v213l-301 -8q-59 -3 -85 -34.5t-26 -98.5v-72z" />
<glyph unicode="A" horiz-adv-x="1021" d="M18 0l369 1374q9 39 51 39h146q40 0 49 -39l371 -1374h-140l-119 467h-469l-118 -467h-140zM305 584h410l-154 608q-26 103 -29 115h-43q-8 -37 -28 -115z" />
<glyph unicode="B" horiz-adv-x="1021" d="M147 0v1413q137 17 363 17q109 0 178.5 -16.5t116 -59t65.5 -113t19 -180.5q0 -154 -46.5 -233t-146.5 -91v-8q123 -13 174.5 -106.5t51.5 -270.5q0 -110 -19 -180.5t-64 -112.5t-110.5 -58.5t-167.5 -16.5q-269 0 -414 16zM281 100q68 -2 260 -2q141 0 193 55t52 218 q0 92 -13 150t-44.5 93.5t-78 49.5t-120.5 16h-249v-580zM281 784h247q88 1 136 23t71 78.5t23 161.5q0 82 -12.5 133.5t-44 82t-77 41.5t-118.5 11q-166 0 -225 -2v-529z" />
<glyph unicode="C" horiz-adv-x="946" d="M104 707q0 205 23 342t76 225t136 126t208 38q106 0 171.5 -8.5t135.5 -30.5l-14 -101q-133 19 -293 19q-114 0 -178.5 -57.5t-93.5 -188.5t-29 -364t29 -364t93.5 -189t178.5 -58q186 0 315 23l17 -101q-133 -43 -332 -43q-166 0 -261.5 71.5t-138.5 229.5t-43 431z" />
<glyph unicode="D" horiz-adv-x="1095" d="M147 0v1413q222 19 402 19q165 0 260 -69t138.5 -226t43.5 -430t-43.5 -430t-138.5 -226t-260 -69q-191 0 -402 18zM283 104q152 -4 266 -4q113 0 177.5 58t93 188.5t28.5 360.5t-28.5 360.5t-93 189t-177.5 58.5q-106 0 -266 -4v-1207z" />
<glyph unicode="E" horiz-adv-x="923" d="M137 231v951q0 106 58 169.5t155 63.5q336 0 488 -12l-7 -103h-458q-101 0 -101 -149v-346h496v-109h-496v-436q0 -147 101 -147h458l7 -103q-152 -12 -488 -12q-98 0 -155.5 63.5t-57.5 169.5z" />
<glyph unicode="F" horiz-adv-x="886" d="M141 0v1176q0 110 58.5 174.5t156.5 64.5q323 0 473 -12l-8 -103h-432q-110 0 -110 -149v-363h479v-108l-479 -2v-678h-138z" />
<glyph unicode="G" horiz-adv-x="1034" d="M104 709q0 279 46 436t146.5 225t278.5 68q184 0 316 -39l-14 -101q-153 21 -295 21q-130 0 -200 -51t-103 -183.5t-33 -382.5q0 -331 57.5 -470.5t196.5 -139.5q57 0 112.5 25t90.5 53.5t85 77.5v569h132v-817h-99l-16 154q-59 -78 -145.5 -128.5t-194.5 -50.5 q-191 0 -276 175.5t-85 558.5z" />
<glyph unicode="H" horiz-adv-x="1101" d="M147 0v1413h136v-600h536v600h135v-1413h-135v698h-536v-698h-136z" />
<glyph unicode="I" horiz-adv-x="428" d="M147 0v1413h136v-1413h-136z" />
<glyph unicode="J" horiz-adv-x="557" d="M51 4l15 94h84q133 0 133 172v1143h135v-1139q0 -142 -56.5 -216t-162.5 -74q-74 0 -148 20z" />
<glyph unicode="K" horiz-adv-x="970" d="M147 0v1413h134v-457q0 -66 -11 -163h140l356 620h147l-344 -596q-27 -49 -61 -78v-6q48 -45 70 -84l358 -649h-152l-376 682h-138q11 -101 11 -160v-522h-134z" />
<glyph unicode="L" horiz-adv-x="845" d="M141 244v1169h135v-1151q0 -149 113 -149h414l6 -103q-174 -12 -442 -12q-116 0 -171 66.5t-55 179.5z" />
<glyph unicode="M" horiz-adv-x="1439" d="M123 0l45 1354q3 59 57 59h158q45 0 57 -47l219 -922q42 -174 46 -192h30q14 67 45 194l219 920q12 47 60 47h155q55 0 58 -59l47 -1354h-133l-41 1300h-39l-262 -1107q-15 -46 -60 -46h-127q-46 0 -61 46l-264 1107h-37l-39 -1300h-133z" />
<glyph unicode="N" horiz-adv-x="1161" d="M147 0v1356q0 57 54 57h145q51 0 62 -45l374 -1049q9 -28 68 -190h31q-2 68 -2 203v1081h135v-1356q0 -57 -53 -57h-150q-48 0 -59 45l-387 1073q-20 65 -60 170h-24v-170l2 -1118h-136z" />
<glyph unicode="O" d="M104 707q0 277 43.5 434.5t139 227t264.5 69.5q167 0 262.5 -69.5t139.5 -227.5t44 -434q0 -208 -23 -345.5t-77 -225t-137.5 -124.5t-208.5 -37q-169 0 -265 70t-139 227.5t-43 434.5zM246 707q0 -233 29 -364.5t94.5 -190t181.5 -58.5q115 0 180 58.5t94 190t29 364.5 q0 175 -15 289.5t-51.5 188t-93 104t-143.5 30.5q-116 0 -181.5 -58.5t-94.5 -189.5t-29 -364z" />
<glyph unicode="P" horiz-adv-x="970" d="M147 0v1413q149 17 388 17q139 0 215 -38.5t110.5 -131t34.5 -263.5t-34 -264t-106.5 -130.5t-203.5 -37.5q-133 0 -268 15v-580h-136zM283 682h249q88 0 135.5 27t70 94.5t22.5 193.5q0 186 -49 252t-179 66q-183 0 -249 -2v-631z" />
<glyph unicode="Q" horiz-adv-x="1101" d="M104 707q0 277 43.5 434.5t139.5 227t264 69.5t263.5 -69.5t139 -227t43.5 -434.5t-43.5 -434.5t-139 -227.5t-263.5 -70t-264 70t-139.5 227.5t-43.5 434.5zM246 707q0 -233 29 -364.5t94.5 -190t181.5 -58.5t181.5 58.5t94.5 190t29 364.5t-29 364t-94.5 189.5 t-181.5 58.5t-181.5 -58.5t-94.5 -189.5t-29 -364zM446 -174l39 80q181 -110 430 -154l-43 -135q-226 49 -426 209z" />
<glyph unicode="R" horiz-adv-x="1017" d="M147 0v1413q149 17 390 17q101 0 167 -18.5t111 -65t64.5 -124t19.5 -196.5q0 -179 -47.5 -264t-161.5 -105v-8q45 -16 83.5 -68t57.5 -132l109 -449h-143l-105 444q-21 87 -57 124.5t-94 37.5q-61 0 -148 1t-112 1v-608h-134zM281 723h251q89 1 137.5 27t71.5 90t23 180 q0 172 -50.5 233.5t-181.5 61.5q-54 0 -138 -1t-113 -1v-590z" />
<glyph unicode="S" horiz-adv-x="925" d="M92 1069q0 83 9 143t30.5 101t49 65.5t71.5 37.5q46 13 92 17q37 3 88 3h27q187 0 336 -33l-11 -98q-188 12 -317 12q-50 0 -77 -1.5t-59 -9.5t-47.5 -23.5t-30 -43.5t-19.5 -70.5t-5 -103.5q0 -126 34 -182.5t114 -77.5l231 -62q128 -32 180 -122.5t52 -264.5 q0 -82 -9.5 -142.5t-31 -102.5t-50 -68.5t-74 -41t-95 -19.5t-119.5 -5q-187 0 -352 31l10 101q242 -13 346 -13q72 1 113 10t71.5 37.5t41.5 79t11 135.5q0 133 -33.5 188.5t-113.5 76.5l-238 63q-121 30 -173 122t-52 261z" />
<glyph unicode="T" horiz-adv-x="954" d="M41 1294v119h872v-119h-368v-1294h-137v1294h-367z" />
<glyph unicode="U" d="M139 535v878h135v-878q0 -244 61.5 -342.5t213.5 -98.5t214 98.5t62 342.5v878h136v-878q0 -305 -92 -432.5t-314 -127.5q-228 0 -322 127.5t-94 432.5z" />
<glyph unicode="V" horiz-adv-x="1001" d="M29 1413h141l274 -1153q24 -87 37 -154h41q6 31 35 154l274 1153h142l-350 -1374q-5 -17 -19 -28t-33 -11h-139q-43 0 -53 39z" />
<glyph unicode="W" horiz-adv-x="1560" d="M51 1413h144l184 -1145q15 -81 24 -164h39q4 31 14 85t13 77l182 1100q3 22 17.5 34.5t36.5 12.5h149q45 0 55 -47l181 -1100q14 -75 24 -162h41q21 141 25 160l186 1149h141l-237 -1372q-10 -41 -53 -41h-158q-43 0 -53 43l-183 1108q-15 101 -26 158h-35 q-5 -25 -13.5 -78t-13.5 -80l-180 -1108q-10 -43 -55 -43h-158q-43 0 -53 41z" />
<glyph unicode="X" horiz-adv-x="1003" d="M43 0l324 733l-304 680h146l266 -625h53l267 625h145l-303 -680l324 -733h-148l-289 684h-45l-291 -684h-145z" />
<glyph unicode="Y" horiz-adv-x="931" d="M18 1413h146l244 -620q14 -34 53 -152h12q23 79 51 150l244 622h141l-377 -907v-506h-133v506z" />
<glyph unicode="Z" horiz-adv-x="931" d="M80 0v115l620 1183h-610v115h752v-115l-619 -1183h629v-115h-772z" />
<glyph unicode="[" horiz-adv-x="538" d="M154 -244v1723q0 41 23.5 67.5t60.5 26.5h231v-90h-170q-9 0 -17 -8.5t-8 -20.5v-1673q0 -12 8 -20.5t17 -8.5h170v-90h-231q-38 0 -61 24t-23 70z" />
<glyph unicode="\" horiz-adv-x="847" d="M45 1413h111l647 -1542h-111z" />
<glyph unicode="]" horiz-adv-x="538" d="M70 -248h168q10 0 17 8.5t7 20.5v1673q0 12 -7 20.5t-17 8.5h-168v90h231q37 0 61.5 -26.5t24.5 -67.5v-1723q0 -41 -24.5 -67.5t-61.5 -26.5h-231v90z" />
<glyph unicode="^" horiz-adv-x="696" d="M49 791l252 419h94l252 -419l-53 -39l-238 362h-14l-238 -362z" />
<glyph unicode="_" horiz-adv-x="720" d="M0 0h721v-102h-721v102z" />
<glyph unicode="`" horiz-adv-x="514" d="M51 1372l76 98l281 -299l-48 -61z" />
<glyph unicode="a" horiz-adv-x="903" d="M88 252v115q0 115 57 178t160 63h342v105q-2 99 -37.5 145.5t-126.5 46.5q-131 0 -350 -28l-12 96q254 45 387 45q137 0 203.5 -70t66.5 -235v-713h-102l-17 164q-56 -71 -145.5 -125.5t-189.5 -54.5q-108 0 -172 70t-64 198zM221 264q0 -166 127 -166h6q64 0 142 42 q82 44 151 118v250l-317 -4q-58 -3 -83.5 -41t-25.5 -113v-86z" />
<glyph unicode="b" horiz-adv-x="937" d="M129 43v1391h131v-398q0 -118 -16 -211q154 193 311 193q152 0 221.5 -121t69.5 -399q0 -275 -77.5 -399t-274.5 -124q-87 0 -187 18t-178 50zM258 739l2 -614q104 -37 215 -37h17q119 0 169 92t50 318q0 229 -41.5 317t-157.5 88q-60 0 -117 -39.5t-137 -124.5z" />
<glyph unicode="c" horiz-adv-x="802" d="M92 496q0 287 86 404.5t295 117.5q154 0 254 -45l-18 -84q-93 16 -215 16q-100 0 -156 -36.5t-82.5 -124.5t-26.5 -248q0 -159 26.5 -247.5t82.5 -124.5t156 -36q130 0 235 23l12 -91q-121 -45 -270 -45q-208 0 -293.5 117t-85.5 404z" />
<glyph unicode="d" horiz-adv-x="942" d="M94 498q0 281 72.5 400.5t228.5 119.5q151 0 293 -94q-8 88 -8 192v318h131v-1434h-102l-13 150q-151 -175 -317 -175q-152 0 -218.5 126t-66.5 397zM229 500q0 -231 43 -320.5t148 -89.5q63 0 115.5 33.5t144.5 120.5v590q-84 37 -138 53t-114 16q-75 0 -117 -36 t-62 -123.5t-20 -243.5z" />
<glyph unicode="e" horiz-adv-x="884" d="M92 500q0 286 85 402t282 116q176 0 258 -76.5t82 -232.5v-8q0 -269 -189 -269h-379q5 -134 33.5 -209.5t81 -105t141.5 -29.5q114 0 281 25l12 -88q-51 -23 -141 -36.5t-168 -13.5q-205 0 -292 120t-87 405zM229 535h349q90 0 90 158v14q0 105 -47.5 151.5t-155.5 46.5 q-131 0 -182 -80t-54 -290z" />
<glyph unicode="f" horiz-adv-x="622" d="M47 889v92l146 10v191q0 142 54 213t177 71q130 0 221 -12l-10 -96h-166q-81 0 -113 -42.5t-32 -146.5v-178h260v-102h-260v-889h-131v889h-146z" />
<glyph unicode="g" horiz-adv-x="917" d="M70 -125q0 96 30.5 153t112.5 107q-71 53 -71 148q0 102 65 163q-103 68 -103 259q0 165 77.5 239t264.5 74q114 0 185 -27h250l-9 -73l-131 -11q45 -71 45 -202q0 -165 -76.5 -238.5t-263.5 -73.5q-107 0 -172 23q-20 -41 -23 -82v-11q0 -35 17 -65q20 -34 64 -43 l301 -63q110 -22 155.5 -85t45.5 -190q0 -167 -82.5 -232t-296.5 -65q-216 0 -300.5 64.5t-84.5 230.5zM199 -111q0 -117 50.5 -157.5t199.5 -40.5q154 0 206 39.5t52 154.5q0 84 -28 117.5t-112 50.5l-268 53l-2 -2q-59 -51 -78.5 -98t-19.5 -117zM223 705 q0 -112 50.5 -161.5t172.5 -49.5q121 0 169.5 49t48.5 162q0 112 -48.5 161t-169.5 49q-123 0 -173 -49t-50 -161z" />
<glyph unicode="h" horiz-adv-x="954" d="M131 0v1434h131v-412q0 -101 -10 -193q195 189 358 189q107 0 162 -69.5t55 -203.5v-745h-129v711q0 105 -28.5 149.5t-94.5 44.5q-68 0 -136.5 -39t-176.5 -129v-737h-131z" />
<glyph unicode="i" horiz-adv-x="407" d="M133 1247v119q0 43 39 43h61q41 0 41 -43v-119q0 -43 -41 -43h-61q-39 0 -39 43zM139 0v991h129v-991h-129z" />
<glyph unicode="j" horiz-adv-x="407" d="M47 -365q92 142 92 316v1040h131v-1040q0 -111 -40 -208t-111 -165zM133 1247v119q0 43 41 43h62q40 0 40 -43v-119q0 -43 -40 -43h-62q-41 0 -41 43z" />
<glyph unicode="k" horiz-adv-x="833" d="M131 0v1434h131v-652q0 -97 -8 -170h106l265 379h149l-254 -370q-26 -37 -55 -58v-4q30 -26 55 -70l281 -489h-148l-293 514h-106q8 -114 8 -166v-348h-131z" />
<glyph unicode="l" horiz-adv-x="485" d="M133 221v1213h131l-2 -1188q0 -70 28.5 -107t82.5 -37h80l16 -98q-52 -20 -143 -20q-89 0 -141 61.5t-52 175.5z" />
<glyph unicode="m" horiz-adv-x="1443" d="M131 0v991h107l8 -162q171 189 329 189q170 0 205 -182q164 182 324 182q104 0 158.5 -69.5t54.5 -203.5v-745h-127v711q-2 102 -32 148t-97 46q-60 0 -115.5 -36.5t-157.5 -131.5v-737h-126v711v6q0 97 -31 142q-32 46 -99 46q-58 0 -114.5 -36.5t-155.5 -131.5v-737 h-131z" />
<glyph unicode="n" horiz-adv-x="954" d="M131 0v991h111l8 -162q195 189 362 189q106 0 161.5 -70t55.5 -203v-745h-131v711q0 105 -27.5 149.5t-92.5 44.5q-68 0 -138 -40t-178 -130v-735h-131z" />
<glyph unicode="o" horiz-adv-x="933" d="M92 496q0 285 85.5 403.5t289.5 118.5q205 0 290 -118t85 -404t-84.5 -403.5t-290.5 -117.5q-204 0 -289.5 118t-85.5 403zM229 496q0 -159 23 -246.5t73.5 -125.5t141.5 -38q136 0 188 88t52 322t-52 321.5t-188 87.5q-91 0 -141.5 -37.5t-73.5 -125.5t-23 -246z" />
<glyph unicode="p" horiz-adv-x="954" d="M131 -418v1409h107l12 -162q67 89 156 139t176 50q147 0 212.5 -127.5t65.5 -398.5q0 -279 -73 -398t-232 -119q-154 0 -299 103q6 -68 6 -195v-301h-131zM262 164q88 -39 145.5 -56.5t116.5 -17.5q75 0 117 36.5t62 124t20 243.5q0 226 -41.5 317.5t-140.5 91.5 q-65 0 -129.5 -40t-149.5 -130v-569z" />
<glyph unicode="q" horiz-adv-x="937" d="M92 494q0 278 79 401t280 123q80 0 179.5 -18.5t178.5 -51.5v-1366h-129l-2 365q0 120 12 196q-162 -168 -321 -168q-142 0 -209.5 125t-67.5 394zM227 485q0 -213 40 -304t143 -91q69 0 128 35.5t142 114.5v626q-112 39 -214 39h-15q-84 -1 -131.5 -38.5t-70 -128 t-22.5 -253.5z" />
<glyph unicode="r" horiz-adv-x="657" d="M131 0v991h102l13 -164q188 191 346 191h35l-15 -123h-45q-64 0 -129.5 -35t-175.5 -117v-743h-131z" />
<glyph unicode="s" horiz-adv-x="835" d="M84 748q0 71 12.5 119.5t34.5 78.5t62.5 46t86.5 22q38 5 94 4h21q187 -4 336 -31l-12 -94q-200 12 -305 12q-32 1 -58.5 0t-47.5 -3t-37 -9t-27 -17.5t-18 -28t-10 -41.5t-3 -58q0 -84 26.5 -117t90.5 -49l237 -58q97 -24 142 -84.5t45 -181.5q0 -73 -14 -123.5 t-39 -81.5t-69.5 -48t-94.5 -22.5t-125 -5.5q-166 0 -312 27l11 96q100 -12 225 -13q25 0 51 1q73 1 115 7t72.5 24.5t41.5 51t11 87.5q0 81 -31 114t-96 48l-234 57q-98 23 -140 85t-42 186z" />
<glyph unicode="t" horiz-adv-x="622" d="M45 889v92l145 10v301h129v-301h261v-102h-261v-643q0 -75 26.5 -109.5t84.5 -34.5h125l16 -98q-85 -20 -178 -20q-101 0 -152 63t-51 184v658h-145z" />
<glyph unicode="u" horiz-adv-x="937" d="M127 246v745h131v-710v-12q0 -93 28 -136q30 -45 101 -45q64 0 128 38t163 124v741h129v-991h-105l-12 150q-181 -175 -346 -175q-107 0 -162 68.5t-55 202.5z" />
<glyph unicode="v" horiz-adv-x="870" d="M33 991h139l203 -717l49 -178h20q47 153 54 180l202 715h140l-299 -958q-13 -33 -45 -33h-121q-15 0 -28 9t-17 24z" />
<glyph unicode="w" horiz-adv-x="1355" d="M41 991h135l174 -760q5 -23 14.5 -71t14.5 -72h20q28 138 29 143l137 719q7 41 51 41h125q19 0 33 -11.5t17 -31.5l135 -717q20 -94 28 -143h25q16 98 27 143l172 760h135l-238 -952q-9 -39 -51 -39h-121q-20 0 -35 11.5t-18 31.5l-135 711q-14 89 -29 153h-18 q-4 -25 -29 -153l-135 -711q-1 -20 -16 -31.5t-37 -11.5h-119q-42 0 -51 39z" />
<glyph unicode="x" horiz-adv-x="864" d="M39 0l272 514l-252 477h142l213 -422h39l213 422h141l-252 -477l270 -514h-141l-235 465h-31l-236 -465h-143z" />
<glyph unicode="y" horiz-adv-x="866" d="M33 991h139l219 -774q31 -114 31 -115h22q28 90 35 117l215 772h142l-324 -1061q-18 -55 -38 -100.5t-50 -90.5t-65.5 -77.5t-84.5 -55.5t-106 -30l-12 84q93 39 146.5 109t86.5 176l21 55h-35q-37 0 -49 35z" />
<glyph unicode="z" horiz-adv-x="839" d="M82 0v109l530 776h-526v106h666v-106l-529 -776h535v-109h-676z" />
<glyph unicode="{" horiz-adv-x="524" d="M78 621v102q57 24 70 36q23 22 26 97v31v420q0 144 66 209.5t211 56.5v-84q-85 0 -117.5 -44.5t-32.5 -146.5v-387q0 -123 -29 -170t-116 -69q90 -34 120 -79.5t31 -152.5v-503q0 -102 32.5 -146.5t117.5 -44.5v-84q-145 -9 -210 56.5t-65 209.5v537q0 39 -4 62.5 t-18.5 40t-26.5 24.5t-43 23z" />
<glyph unicode="|" horiz-adv-x="403" d="M154 -346v1945h96v-1945h-96z" />
<glyph unicode="}" horiz-adv-x="524" d="M68 -254q85 0 117 44.5t32 146.5v503q1 107 31.5 152.5t120.5 79.5q-87 22 -116.5 69t-29.5 170v387q0 102 -32 146.5t-117 44.5v84q145 9 210.5 -56.5t65.5 -209.5v-420q0 -63 7.5 -91.5t23 -40.5t54.5 -28q7 -2 11 -4v-102l-12 -6q-31 -15 -43.5 -23t-26.5 -24.5 t-18 -40t-4 -62.5v-537q0 -144 -64.5 -209.5t-209.5 -56.5v84z" />
<glyph unicode="~" horiz-adv-x="866" d="M127 477q-9 111 28 168.5t101 52.5q50 -3 112 -32.5t122.5 -59.5t103.5 -35q45 -4 61.5 22.5t16.5 94.5h67q10 -107 -26 -163.5t-101 -51.5q-57 3 -120.5 32t-121.5 58.5t-98 34.5q-43 6 -59 -22.5t-16 -98.5h-70z" />
<glyph unicode="&#xa1;" horiz-adv-x="419" d="M143 229l13 344h106l12 -344v-637h-131v637zM143 831v119q0 28 11 38.5t39 10.5h34q27 0 38 -11t11 -38v-119q0 -27 -11 -38t-38 -11h-34q-28 0 -39 10.5t-11 38.5z" />
<glyph unicode="&#xa2;" horiz-adv-x="837" d="M92 717q0 285 86 402.5t293 117.5h6l17 176h69l-12 -180q114 -12 176 -39l-18 -90q-76 14 -168 18l-52 -815h5q131 0 233 23l14 -90q-121 -45 -262 -45l-14 -195h-70l15 197q-173 15 -245.5 135t-72.5 385zM223 717q0 -206 44 -296.5t153 -107.5l49 811 q-93 -4 -145.5 -43t-76.5 -125.5t-24 -238.5z" />
<glyph unicode="&#xa3;" horiz-adv-x="935" d="M94 702v82h127l-12 287q-3 79 4.5 138.5t26.5 99.5t44 65.5t64 38.5t78 18t94 5q118 0 293 -21l-8 -104q-110 10 -291 10q-101 0 -140 -56t-34 -194l14 -287h357l-4 -82h-349l9 -178q5 -150 -22 -248t-97 -165q35 4 108 4h496v-115h-750v115q81 56 108.5 156.5 t20.5 252.5l-8 178h-129z" />
<glyph unicode="&#xa5;" horiz-adv-x="1015" d="M61 1413h142l243 -584q18 -44 58 -153h12q28 86 53 151l244 586h139l-336 -764h256v-82h-290l-7 -12v-135h297v-82h-297v-338h-135v338h-286l-2 82h288v135l-6 12h-280l-4 82h249z" />
<glyph unicode="&#xa7;" horiz-adv-x="899" d="M104 1190q0 63 14.5 108t40 72t67.5 42.5t89 21t113 4.5q167 0 356 -25l-8 -100q-148 12 -317 14q-46 1 -72.5 -0.5t-57.5 -8.5t-46.5 -22t-26.5 -41.5t-12 -66.5q-1 -74 27 -122t83 -89l273 -199q77 -51 115 -119.5t41 -154.5t-15 -197h-94q9 140 -16 225.5t-99 137.5 l-287 209q-88 68 -128 135.5t-40 175.5zM113 -293l12 100q198 -14 315 -14q39 -1 61 0t50.5 5t44 13t31 25t22 41.5t6.5 61.5q2 130 -108 211l-273 198q-77 50 -115 117t-41.5 152.5t13.5 197.5h96q-9 -143 14.5 -223.5t98.5 -134.5l289 -209q84 -64 125 -134t41 -180 q0 -68 -16 -115.5t-41.5 -74t-70 -41t-87 -18t-107.5 -2.5q-175 0 -360 24z" />
<glyph unicode="&#xa8;" horiz-adv-x="675" d="M135 1251v113q0 41 35 41h45q37 0 37 -41v-113q0 -39 -37 -39h-45q-35 0 -35 39zM426 1251v113q0 41 37 41h43q39 0 39 -41v-113q0 -39 -39 -39h-43q-37 0 -37 39z" />
<glyph unicode="&#xa9;" horiz-adv-x="1382" d="M98 707q0 208 79.5 376t214.5 261.5t298 93.5q164 0 299.5 -93.5t215 -261.5t79.5 -376q0 -156 -46.5 -293t-126.5 -232.5t-189.5 -151t-231.5 -55.5t-231 55.5t-188.5 151t-126 232.5t-46.5 293zM172 707q0 -185 70.5 -336.5t189 -235.5t258.5 -84q141 0 259.5 84 t188.5 235t70 337q0 185 -70 336t-188.5 235t-259.5 84q-140 0 -258.5 -83.5t-189 -235t-70.5 -336.5zM377 713q0 252 72 355t249 103q140 0 222 -26l-11 -76q-90 10 -211 10q-123 0 -170 -80t-47 -286q0 -208 47 -288.5t170 -80.5q148 0 230 12l10 -75q-110 -29 -240 -29 q-177 0 -249 103.5t-72 357.5z" />
<glyph unicode="&#xaa;" horiz-adv-x="727" d="M109 719v80q0 77 39.5 119.5t111.5 42.5h246v69q0 123 -107 123q-101 0 -256 -18l-10 73q173 31 287 31q92 0 138 -49t46 -162v-473h-78l-14 121q-43 -52 -107.5 -91.5t-136.5 -39.5q-73 0 -116 45.5t-43 128.5zM207 737q0 -55 22.5 -79.5t69.5 -24.5q47 -1 104.5 29 t102.5 75v164l-215 -12q-46 -3 -65 -26.5t-19 -69.5v-56z" />
<glyph unicode="&#xab;" horiz-adv-x="794" d="M74 498v32l264 406l70 -45l-211 -377l213 -383l-70 -45zM369 498v32l264 406l69 -45l-210 -377l213 -383l-70 -45z" />
<glyph unicode="&#xac;" horiz-adv-x="972" d="M123 557v102h719v-391h-101v289h-618z" />
<glyph unicode="&#xad;" horiz-adv-x="745" d="M121 465v102h504v-102h-504z" />
<glyph unicode="&#xae;" horiz-adv-x="915" d="M92 981q0 189 107 322t260 133q152 0 258 -133t106 -322q0 -191 -106 -324t-258 -133q-101 0 -185.5 61t-133 166t-48.5 230zM141 981q0 -168 93 -287t225 -119q130 0 222.5 119.5t92.5 286.5q0 169 -92 287t-223 118q-132 0 -225 -118t-93 -287zM293 709v546q67 7 180 7 q93 0 131.5 -33.5t38.5 -122.5q0 -67 -22.5 -100.5t-75.5 -40.5v-4q49 -11 63 -80l54 -172h-68l-47 168q-19 63 -70 63q-92 0 -121 2v-233h-63zM356 989h117q61 2 84 25.5t23 85.5q0 65 -22.5 86.5t-84.5 21.5h-117v-219z" />
<glyph unicode="&#xaf;" horiz-adv-x="659" d="M100 1260v100h459v-100h-459z" />
<glyph unicode="&#xb0;" horiz-adv-x="602" d="M88 1182q0 106 62.5 181t150.5 75q87 0 150 -75.5t63 -180.5q0 -106 -63 -183t-150 -77t-150 77t-63 183zM172 1182q0 -72 37.5 -124t91.5 -52q53 0 91 52t38 124q0 74 -37.5 124t-91.5 50t-91.5 -50t-37.5 -124z" />
<glyph unicode="&#xb1;" horiz-adv-x="970" d="M127 160v100h719v-100h-719zM127 676v100h307v283h103v-283h309v-100h-311v-283h-101v283h-307z" />
<glyph unicode="&#xb4;" horiz-adv-x="512" d="M90 1171l281 299l75 -98l-309 -262z" />
<glyph unicode="&#xb6;" horiz-adv-x="978" d="M70 922q0 283 114 399.5t387 116.5q149 0 248 -35v-1403h-102v1337q-108 11 -170 11v-1778h-101v842q-201 23 -288.5 141.5t-87.5 368.5z" />
<glyph unicode="&#xb7;" horiz-adv-x="382" d="M121 469v117q0 28 11 39.5t38 11.5h45q26 0 37.5 -11.5t11.5 -39.5v-117q0 -28 -11.5 -39.5t-37.5 -11.5h-45q-27 0 -38 11.5t-11 39.5z" />
<glyph unicode="&#xb8;" horiz-adv-x="382" d="M57 -463l21 72q68 -3 110.5 42.5t44.5 115.5q2 43 -18 59.5t-78 17.5l13 64q97 9 139 -20t41 -113q-3 -122 -79.5 -189.5t-193.5 -48.5z" />
<glyph unicode="&#xba;" horiz-adv-x="733" d="M100 889q0 192 60 271t207 79t206.5 -78.5t59.5 -271.5t-59.5 -271.5t-206.5 -78.5t-207 79t-60 271zM203 889q0 -151 35.5 -207.5t128.5 -56.5q91 0 126 56.5t35 207.5q0 153 -35 209.5t-126 56.5q-93 0 -128.5 -56.5t-35.5 -209.5z" />
<glyph unicode="&#xbb;" horiz-adv-x="794" d="M92 131l211 383l-209 377l68 45l264 -406v-32l-266 -412zM387 131l211 383l-209 377l68 45l264 -406v-32l-266 -412z" />
<glyph unicode="&#xbf;" horiz-adv-x="825" d="M70 -125q0 63 16 118t42 97.5t58 83t64 83.5t58.5 89t44.5 109t20 135h110q2 -107 -25.5 -194.5t-67.5 -146.5t-80.5 -111.5t-70 -114t-30.5 -129.5q-3 -114 50.5 -169t168.5 -55q35 0 63.5 0.5t56 2t42.5 2t42.5 3.5t36 4t42.5 5.5t43 5.5l8 -94q-14 -3 -51 -11 t-50.5 -10.5t-46.5 -7.5t-58.5 -7t-65.5 -3.5t-87 -1.5q-167 0 -250 77.5t-83 239.5zM362 848v117q0 28 12 39.5t40 11.5h32q28 0 39 -11.5t11 -39.5v-117q0 -28 -11 -39.5t-39 -11.5h-32q-28 0 -40 11.5t-12 39.5z" />
<glyph unicode="&#xc0;" horiz-adv-x="1021" d="M18 0l369 1374q9 39 51 39h146q40 0 49 -39l371 -1374h-140l-119 467h-469l-118 -467h-140zM238 1759l75 99l281 -299l-47 -62zM305 584h410l-154 608q-26 103 -29 115h-43q-8 -37 -28 -115z" />
<glyph unicode="&#xc1;" horiz-adv-x="1021" d="M18 0l369 1374q9 39 51 39h146q40 0 49 -39l371 -1374h-140l-119 467h-469l-118 -467h-140zM305 584h410l-154 608q-26 103 -29 115h-43q-8 -37 -28 -115zM408 1559l280 299l76 -99l-309 -262z" />
<glyph unicode="&#xc2;" horiz-adv-x="1021" d="M18 0l369 1374q9 39 51 39h146q40 0 49 -39l371 -1374h-140l-119 467h-469l-118 -467h-140zM248 1571l217 254h96l217 -254l-47 -58l-213 203h-12l-215 -203zM305 584h410l-154 608q-26 103 -29 115h-43q-8 -37 -28 -115z" />
<glyph unicode="&#xc3;" horiz-adv-x="1021" d="M18 0l369 1374q9 39 51 39h146q40 0 49 -39l371 -1374h-140l-119 467h-469l-118 -467h-140zM254 1577q-10 108 27 164.5t100 50.5q34 -3 68 -21.5t58 -39t56.5 -39.5t63.5 -23q45 -6 62.5 21t17.5 92h63q9 -103 -27.5 -159t-101.5 -50q-37 3 -73.5 22t-60.5 40t-54.5 40 t-57.5 23q-44 6 -62 -23.5t-18 -97.5h-61zM305 584h410l-154 608q-26 103 -29 115h-43q-8 -37 -28 -115z" />
<glyph unicode="&#xc4;" horiz-adv-x="1021" d="M18 0l369 1374q9 39 51 39h146q40 0 49 -39l371 -1374h-140l-119 467h-469l-118 -467h-140zM305 584h410l-154 608q-26 103 -29 115h-43q-8 -37 -28 -115zM307 1618v113q0 41 35 41h45q37 0 37 -41v-113q0 -39 -37 -39h-45q-35 0 -35 39zM598 1618v113q0 41 37 41h43 q39 0 39 -41v-113q0 -39 -39 -39h-43q-37 0 -37 39z" />
<glyph unicode="&#xc5;" horiz-adv-x="1021" d="M18 0l369 1374q9 39 51 39h146q40 0 49 -39l371 -1374h-140l-119 467h-469l-118 -467h-140zM305 584h410l-154 608q-26 103 -29 115h-43q-8 -37 -28 -115zM338 1673q0 87 51.5 148t122.5 61q72 0 124 -61t52 -148t-51 -147t-125 -60q-72 0 -123 60t-51 147zM412 1673 q0 -60 29 -97.5t71 -37.5q43 0 71.5 37t28.5 98q0 60 -28.5 98.5t-71.5 38.5t-71.5 -38.5t-28.5 -98.5z" />
<glyph unicode="&#xc6;" horiz-adv-x="1503" d="M-2 0l575 1208q58 122 135.5 163.5t227.5 41.5q304 0 483 -10l-8 -105h-422q-51 0 -81.5 -41t-30.5 -110v-340l471 -2v-109l-471 -2v-432q0 -149 112 -149h422l8 -103q-158 -12 -483 -12q-83 0 -134.5 65.5t-51.5 167.5v265h-377l-230 -496h-145zM426 608h324v555 q0 44 15.5 88.5t37.5 63.5h-15q-51 -35 -98 -135z" />
<glyph unicode="&#xc7;" horiz-adv-x="946" d="M104 707q0 205 23 342t76 225t136 126t208 38q106 0 171.5 -8.5t135.5 -30.5l-14 -101q-133 19 -293 19q-114 0 -178.5 -57.5t-93.5 -188.5t-29 -364t29 -364t93.5 -189t178.5 -58q186 0 315 23l17 -101q-133 -43 -332 -43q-166 0 -261.5 71.5t-138.5 229.5t-43 431z M375 -487l20 71q68 -3 111 42.5t45 115.5q2 43 -18 60t-78 18l12 63q97 9 139 -20t41 -113q-3 -122 -79 -189t-193 -48z" />
<glyph unicode="&#xc8;" horiz-adv-x="923" d="M137 231v951q0 106 58 169.5t155 63.5q336 0 488 -12l-7 -103h-458q-101 0 -101 -149v-346h496v-109h-496v-436q0 -147 101 -147h458l7 -103q-152 -12 -488 -12q-98 0 -155.5 63.5t-57.5 169.5zM248 1804l76 99l280 -299l-47 -62z" />
<glyph unicode="&#xc9;" horiz-adv-x="923" d="M137 231v951q0 106 58 169.5t155 63.5q336 0 488 -12l-7 -103h-458q-101 0 -101 -149v-346h496v-109h-496v-436q0 -147 101 -147h458l7 -103q-152 -12 -488 -12q-98 0 -155.5 63.5t-57.5 169.5zM416 1604l280 299l76 -99l-309 -262z" />
<glyph unicode="&#xca;" horiz-adv-x="923" d="M137 231v951q0 106 58 169.5t155 63.5q336 0 488 -12l-7 -103h-458q-101 0 -101 -149v-346h496v-109h-496v-436q0 -147 101 -147h458l7 -103q-152 -12 -488 -12q-98 0 -155.5 63.5t-57.5 169.5zM256 1616l217 254h96l217 -254l-47 -57l-213 202h-12l-215 -202z" />
<glyph unicode="&#xcb;" horiz-adv-x="923" d="M137 231v951q0 106 58 169.5t155 63.5q336 0 488 -12l-7 -103h-458q-101 0 -101 -149v-346h496v-109h-496v-436q0 -147 101 -147h458l7 -103q-152 -12 -488 -12q-98 0 -155.5 63.5t-57.5 169.5zM317 1663v113q0 41 35 41h45q37 0 37 -41v-113q0 -39 -37 -39h-45 q-35 0 -35 39zM608 1663v113q0 41 37 41h43q39 0 39 -41v-113q0 -39 -39 -39h-43q-37 0 -37 39z" />
<glyph unicode="&#xcc;" horiz-adv-x="428" d="M-61 1759l75 99l281 -299l-47 -62zM147 0v1413h136v-1413h-136z" />
<glyph unicode="&#xcd;" horiz-adv-x="428" d="M109 1559l280 299l76 -99l-309 -262zM147 0v1413h136v-1413h-136z" />
<glyph unicode="&#xce;" horiz-adv-x="428" d="M-51 1571l217 254h96l217 -254l-47 -58l-213 203h-12l-215 -203zM147 0v1413h136v-1413h-136z" />
<glyph unicode="&#xcf;" horiz-adv-x="428" d="M10 1618v113q0 41 35 41h45q37 0 37 -41v-113q0 -39 -37 -39h-45q-35 0 -35 39zM147 0v1413h136v-1413h-136zM301 1618v113q0 41 37 41h43q39 0 39 -41v-113q0 -39 -39 -39h-43q-37 0 -37 39z" />
<glyph unicode="&#xd0;" horiz-adv-x="1101" d="M39 715v80h117v618q222 19 401 19q165 0 260 -69t138.5 -226t43.5 -430t-43.5 -430t-138.5 -226t-260 -69q-190 0 -401 18v715h-117zM291 104q152 -4 266 -4q113 0 177.5 58t93 188.5t28.5 360.5t-28.5 360.5t-93 189t-177.5 58.5q-106 0 -266 -4v-516h252v-80h-252v-611 z" />
<glyph unicode="&#xd1;" horiz-adv-x="1161" d="M147 0v1356q0 57 54 57h145q51 0 62 -45l374 -1049q9 -28 68 -190h31q-2 68 -2 203v1081h135v-1356q0 -57 -53 -57h-150q-48 0 -59 45l-387 1073q-20 65 -60 170h-24v-170l2 -1118h-136zM330 1577q-10 108 27 164.5t100 50.5q43 -4 84.5 -32.5t81.5 -57t79 -33.5 q45 -6 62.5 21t17.5 92h64q9 -103 -27.5 -159t-101.5 -50q-37 3 -73.5 22t-60.5 40t-54.5 40t-57.5 23q-44 6 -62 -23.5t-18 -97.5h-61z" />
<glyph unicode="&#xd2;" d="M104 707q0 277 43.5 434.5t139 227t264.5 69.5q167 0 262.5 -69.5t139.5 -227.5t44 -434q0 -208 -23 -345.5t-77 -225t-137.5 -124.5t-208.5 -37q-169 0 -265 70t-139 227.5t-43 434.5zM246 707q0 -233 29 -364.5t94.5 -190t181.5 -58.5q115 0 180 58.5t94 190t29 364.5 q0 175 -15 289.5t-51.5 188t-93 104t-143.5 30.5q-116 0 -181.5 -58.5t-94.5 -189.5t-29 -364zM274 1759l76 99l281 -299l-47 -62z" />
<glyph unicode="&#xd3;" d="M104 707q0 277 43.5 434.5t139 227t264.5 69.5q167 0 262.5 -69.5t139.5 -227.5t44 -434q0 -208 -23 -345.5t-77 -225t-137.5 -124.5t-208.5 -37q-169 0 -265 70t-139 227.5t-43 434.5zM246 707q0 -233 29 -364.5t94.5 -190t181.5 -58.5q115 0 180 58.5t94 190t29 364.5 q0 175 -15 289.5t-51.5 188t-93 104t-143.5 30.5q-116 0 -181.5 -58.5t-94.5 -189.5t-29 -364zM444 1559l281 299l76 -99l-309 -262z" />
<glyph unicode="&#xd4;" d="M104 707q0 277 43.5 434.5t139 227t264.5 69.5q167 0 262.5 -69.5t139.5 -227.5t44 -434q0 -208 -23 -345.5t-77 -225t-137.5 -124.5t-208.5 -37q-169 0 -265 70t-139 227.5t-43 434.5zM246 707q0 -233 29 -364.5t94.5 -190t181.5 -58.5q115 0 180 58.5t94 190t29 364.5 q0 175 -15 289.5t-51.5 188t-93 104t-143.5 30.5q-116 0 -181.5 -58.5t-94.5 -189.5t-29 -364zM285 1571l217 254h96l217 -254l-47 -58l-213 203h-12l-215 -203z" />
<glyph unicode="&#xd5;" d="M104 707q0 277 43.5 434.5t139 227t264.5 69.5q167 0 262.5 -69.5t139.5 -227.5t44 -434q0 -208 -23 -345.5t-77 -225t-137.5 -124.5t-208.5 -37q-169 0 -265 70t-139 227.5t-43 434.5zM246 707q0 -233 29 -364.5t94.5 -190t181.5 -58.5q115 0 180 58.5t94 190t29 364.5 q0 175 -15 289.5t-51.5 188t-93 104t-143.5 30.5q-116 0 -181.5 -58.5t-94.5 -189.5t-29 -364zM291 1577q-10 108 27 164.5t100 50.5q34 -3 68 -21.5t58 -39t56.5 -39.5t63.5 -23q44 -6 61.5 21t17.5 92h64q9 -103 -27.5 -159t-101.5 -50q-37 3 -73.5 22t-60.5 40t-54.5 40 t-57.5 23q-44 6 -62 -23.5t-18 -97.5h-61z" />
<glyph unicode="&#xd6;" d="M104 707q0 277 43.5 434.5t139 227t264.5 69.5q167 0 262.5 -69.5t139.5 -227.5t44 -434q0 -208 -23 -345.5t-77 -225t-137.5 -124.5t-208.5 -37q-169 0 -265 70t-139 227.5t-43 434.5zM246 707q0 -233 29 -364.5t94.5 -190t181.5 -58.5q115 0 180 58.5t94 190t29 364.5 q0 175 -15 289.5t-51.5 188t-93 104t-143.5 30.5q-116 0 -181.5 -58.5t-94.5 -189.5t-29 -364zM346 1618v113q0 41 35 41h45q37 0 37 -41v-113q0 -39 -37 -39h-45q-35 0 -35 39zM637 1618v113q0 41 37 41h43q39 0 39 -41v-113q0 -39 -39 -39h-43q-37 0 -37 39z" />
<glyph unicode="&#xd8;" d="M104 707q0 277 43.5 434.5t139 227t264.5 69.5q128 0 213 -39l49 131l70 -33l-54 -141q89 -74 128.5 -230t39.5 -419q0 -208 -23 -345.5t-77 -225t-137.5 -124.5t-208.5 -37q-136 0 -225 45l-50 -133l-71 33l55 146q-83 77 -119.5 230t-36.5 411zM246 707q0 -357 71 -488 l400 1055q-62 45 -166 45q-116 0 -181.5 -58.5t-94.5 -189.5t-29 -364zM375 147q64 -53 176 -53q115 0 180 58.5t94 190t29 364.5q0 372 -80 501z" />
<glyph unicode="&#xd9;" d="M139 535v878h135v-878q0 -244 61.5 -342.5t213.5 -98.5t214 98.5t62 342.5v878h136v-878q0 -305 -92 -432.5t-314 -127.5q-228 0 -322 127.5t-94 432.5zM276 1759l76 99l281 -299l-47 -62z" />
<glyph unicode="&#xda;" d="M139 535v878h135v-878q0 -244 61.5 -342.5t213.5 -98.5t214 98.5t62 342.5v878h136v-878q0 -305 -92 -432.5t-314 -127.5q-228 0 -322 127.5t-94 432.5zM446 1559l281 299l76 -99l-309 -262z" />
<glyph unicode="&#xdb;" d="M139 535v878h135v-878q0 -244 61.5 -342.5t213.5 -98.5t214 98.5t62 342.5v878h136v-878q0 -305 -92 -432.5t-314 -127.5q-228 0 -322 127.5t-94 432.5zM287 1571l217 254h96l217 -254l-47 -58l-213 203h-12l-215 -203z" />
<glyph unicode="&#xdc;" d="M139 535v878h135v-878q0 -244 61.5 -342.5t213.5 -98.5t214 98.5t62 342.5v878h136v-878q0 -305 -92 -432.5t-314 -127.5q-228 0 -322 127.5t-94 432.5zM348 1618v113q0 41 35 41h45q37 0 37 -41v-113q0 -39 -37 -39h-45q-35 0 -35 39zM639 1618v113q0 41 37 41h43 q39 0 39 -41v-113q0 -39 -39 -39h-43q-37 0 -37 39z" />
<glyph unicode="&#xdd;" horiz-adv-x="931" d="M18 1413h146l244 -620q14 -34 53 -152h12q23 79 51 150l244 622h141l-377 -907v-506h-133v506zM360 1559l281 299l76 -99l-309 -262z" />
<glyph unicode="&#xde;" horiz-adv-x="974" d="M147 0v1413h136v-264q68 4 254 4q138 0 213.5 -38t110 -131.5t34.5 -266.5t-34 -266.5t-106 -130.5t-204 -37q-124 0 -268 12v-295h-136zM283 399h249q88 0 135.5 27t70 95t22.5 196q0 129 -22.5 197.5t-70 95t-135.5 26.5q-183 0 -249 -2v-635z" />
<glyph unicode="&#xdf;" horiz-adv-x="1107" d="M47 887v100l146 4v113q0 81 10.5 141t34 100t52 65t74 38t89.5 17.5t108 4.5q200 0 284.5 -55.5t84.5 -200.5q0 -101 -30 -157t-116 -111q-17 -11 -50 -29.5t-44 -26t-30.5 -23.5t-25.5 -30t-12 -36t-6 -51q0 -57 25 -86.5t82 -59.5l178 -88q77 -40 110 -96t33 -164 q0 -88 -17.5 -144.5t-57 -85.5t-87.5 -39t-124 -10q-131 0 -266 23l10 98q101 -12 231 -12q43 1 69 4t51 13t37.5 29t20 50t7.5 78q0 77 -24.5 109.5t-86.5 62.5l-180 92q-66 33 -100.5 86t-34.5 138q0 30 4.5 56t11 45t20 37.5t23.5 30t31.5 27t34 23l40 24t41.5 25.5 q63 39 86 79.5t23 116.5q0 81 -52.5 115.5t-187.5 34.5q-73 0 -117.5 -11t-74 -42t-40.5 -82t-11 -135v-1092h-131v887h-146z" />
<glyph unicode="&#xe0;" horiz-adv-x="903" d="M88 252v115q0 115 57 178t160 63h342v105q-2 99 -37.5 145.5t-126.5 46.5q-131 0 -350 -28l-12 96q254 45 387 45q137 0 203.5 -70t66.5 -235v-713h-102l-17 164q-56 -71 -145.5 -125.5t-189.5 -54.5q-108 0 -172 70t-64 198zM170 1389l76 98l280 -299l-47 -62zM221 264 q0 -166 127 -166q65 -2 147.5 41.5t151.5 118.5v250l-317 -4q-58 -3 -83.5 -41t-25.5 -113v-86z" />
<glyph unicode="&#xe1;" horiz-adv-x="903" d="M88 252v115q0 115 57 178t160 63h342v105q-2 99 -37.5 145.5t-126.5 46.5q-131 0 -350 -28l-12 96q254 45 387 45q137 0 203.5 -70t66.5 -235v-713h-102l-17 164q-56 -71 -145.5 -125.5t-189.5 -54.5q-108 0 -172 70t-64 198zM221 264q0 -166 127 -166q65 -2 147.5 41.5 t151.5 118.5v250l-317 -4q-58 -3 -83.5 -41t-25.5 -113v-86zM338 1188l280 299l76 -98l-309 -263z" />
<glyph unicode="&#xe2;" horiz-adv-x="903" d="M88 252v115q0 115 57 178t160 63h342v105q-2 99 -37.5 145.5t-126.5 46.5q-131 0 -350 -28l-12 96q254 45 387 45q137 0 203.5 -70t66.5 -235v-713h-102l-17 164q-56 -71 -145.5 -125.5t-189.5 -54.5q-108 0 -172 70t-64 198zM178 1200l217 254h97l217 -254l-47 -57 l-213 203h-13l-215 -203zM221 264q0 -166 127 -166q65 -2 147.5 41.5t151.5 118.5v250l-317 -4q-58 -3 -83.5 -41t-25.5 -113v-86z" />
<glyph unicode="&#xe3;" horiz-adv-x="903" d="M88 252v115q0 115 57 178t160 63h342v105q-2 99 -37.5 145.5t-126.5 46.5q-131 0 -350 -28l-12 96q254 45 387 45q137 0 203.5 -70t66.5 -235v-713h-102l-17 164q-56 -71 -145.5 -125.5t-189.5 -54.5q-108 0 -172 70t-64 198zM186 1206q-10 108 27 164.5t100 50.5 q34 -3 68 -21.5t58 -39t56.5 -39.5t63.5 -23q45 -6 62.5 21t17.5 92h63q9 -103 -27.5 -159t-101.5 -50q-37 3 -73.5 22t-60 40t-54 40t-57.5 23q-44 6 -62 -23.5t-18 -97.5h-62zM221 264q0 -166 127 -166q65 -2 147.5 41.5t151.5 118.5v250l-317 -4q-58 -3 -83.5 -41 t-25.5 -113v-86z" />
<glyph unicode="&#xe4;" horiz-adv-x="903" d="M88 252v115q0 115 57 178t160 63h342v105q-2 99 -37.5 145.5t-126.5 46.5q-131 0 -350 -28l-12 96q254 45 387 45q137 0 203.5 -70t66.5 -235v-713h-102l-17 164q-56 -71 -145.5 -125.5t-189.5 -54.5q-108 0 -172 70t-64 198zM221 264q0 -166 127 -166q65 -2 147.5 41.5 t151.5 118.5v250l-317 -4q-58 -3 -83.5 -41t-25.5 -113v-86zM240 1249v113q0 41 34 41h45q37 0 37 -41v-113q0 -39 -37 -39h-45q-34 0 -34 39zM530 1249v113q0 41 37 41h43q39 0 39 -41v-113q0 -39 -39 -39h-43q-37 0 -37 39z" />
<glyph unicode="&#xe5;" horiz-adv-x="903" d="M88 252v115q0 115 57 178t160 63h342v105q-2 99 -37.5 145.5t-126.5 46.5q-131 0 -350 -28l-12 96q254 45 387 45q137 0 203.5 -70t66.5 -235v-713h-102l-17 164q-56 -71 -145.5 -125.5t-189.5 -54.5q-108 0 -172 70t-64 198zM221 264q0 -166 127 -166q65 -2 147.5 41.5 t151.5 118.5v250l-317 -4q-58 -3 -83.5 -41t-25.5 -113v-86zM270 1305q0 87 51.5 147.5t122.5 60.5q73 0 125 -60.5t52 -147.5t-51.5 -147t-125.5 -60q-72 0 -123 60t-51 147zM344 1305q0 -60 29 -98t71 -38q43 0 72 37.5t29 98.5q0 60 -29 98.5t-72 38.5t-71.5 -38.5 t-28.5 -98.5z" />
<glyph unicode="&#xe6;" horiz-adv-x="1437" d="M88 252v115q0 116 56.5 178.5t160.5 62.5h342v105q0 99 -36 145.5t-128 46.5q-131 0 -350 -28l-12 96q254 45 387 45q168 0 229 -107q86 107 275 107q178 0 260 -76.5t82 -232.5q2 -141 -49.5 -209t-161.5 -68h-359q5 -134 33.5 -209.5t81.5 -105t143 -29.5q112 0 279 25 l14 -88q-50 -23 -141.5 -36.5t-167.5 -13.5q-138 0 -221 52t-121 166q-57 -80 -153 -144.5t-207 -64.5q-108 0 -172 70t-64 198zM221 264q0 -166 127 -166q69 -2 156.5 45.5t159.5 128.5q-19 105 -19 228v8l-315 -4q-58 -3 -83.5 -41t-25.5 -113v-86zM782 535h328 q64 0 88.5 43t24.5 129q0 104 -48 151t-157 47q-131 0 -182 -80t-54 -290z" />
<glyph unicode="&#xe7;" horiz-adv-x="802" d="M92 496q0 287 86 404.5t295 117.5q154 0 254 -45l-18 -84q-93 16 -215 16q-100 0 -156 -36.5t-82.5 -124.5t-26.5 -248q0 -159 26.5 -247.5t82.5 -124.5t156 -36q130 0 235 23l12 -91q-121 -45 -270 -45q-208 0 -293.5 117t-85.5 404zM297 -487l20 71q68 -3 111 42.5 t45 115.5q2 43 -18 60t-78 18l12 63q97 9 139 -20t41 -113q-3 -122 -79 -189t-193 -48z" />
<glyph unicode="&#xe8;" horiz-adv-x="884" d="M92 500q0 286 85 402t282 116q176 0 258 -76.5t82 -232.5q3 -277 -189 -277h-379q5 -134 33.5 -209.5t81 -105t141.5 -29.5q114 0 281 25l12 -88q-51 -23 -141 -36.5t-168 -13.5q-205 0 -292 120t-87 405zM184 1389l76 98l281 -299l-47 -62zM229 535h349q94 0 90 172 q0 105 -47.5 151.5t-155.5 46.5q-131 0 -182 -80t-54 -290z" />
<glyph unicode="&#xe9;" horiz-adv-x="884" d="M92 500q0 286 85 402t282 116q176 0 258 -76.5t82 -232.5q3 -277 -189 -277h-379q5 -134 33.5 -209.5t81 -105t141.5 -29.5q114 0 281 25l12 -88q-51 -23 -141 -36.5t-168 -13.5q-205 0 -292 120t-87 405zM229 535h349q94 0 90 172q0 105 -47.5 151.5t-155.5 46.5 q-131 0 -182 -80t-54 -290zM352 1188l281 299l76 -98l-310 -263z" />
<glyph unicode="&#xea;" horiz-adv-x="884" d="M92 500q0 286 85 402t282 116q176 0 258 -76.5t82 -232.5q3 -277 -189 -277h-379q5 -134 33.5 -209.5t81 -105t141.5 -29.5q114 0 281 25l12 -88q-51 -23 -141 -36.5t-168 -13.5q-205 0 -292 120t-87 405zM193 1200l217 254h96l217 -254l-47 -57l-213 203h-12l-215 -203z M229 535h349q94 0 90 172q0 105 -47.5 151.5t-155.5 46.5q-131 0 -182 -80t-54 -290z" />
<glyph unicode="&#xeb;" horiz-adv-x="884" d="M92 500q0 286 85 402t282 116q176 0 258 -76.5t82 -232.5q3 -277 -189 -277h-379q5 -134 33.5 -209.5t81 -105t141.5 -29.5q114 0 281 25l12 -88q-51 -23 -141 -36.5t-168 -13.5q-205 0 -292 120t-87 405zM229 535h349q94 0 90 172q0 105 -47.5 151.5t-155.5 46.5 q-131 0 -182 -80t-54 -290zM254 1249v113q0 41 35 41h45q37 0 37 -41v-113q0 -39 -37 -39h-45q-35 0 -35 39zM545 1249v113q0 41 37 41h43q39 0 39 -41v-113q0 -39 -39 -39h-43q-37 0 -37 39z" />
<glyph unicode="&#xec;" horiz-adv-x="407" d="M-72 1389l76 98l281 -299l-47 -62zM139 0v991h131v-991h-131z" />
<glyph unicode="&#xed;" horiz-adv-x="407" d="M98 1188l281 299l76 -98l-310 -263zM139 0v991h131v-991h-131z" />
<glyph unicode="&#xee;" horiz-adv-x="407" d="M-61 1200l217 254h96l217 -254l-47 -57l-213 203h-12l-215 -203zM139 0v991h131v-991h-131z" />
<glyph unicode="&#xef;" horiz-adv-x="407" d="M0 1249v113q0 41 35 41h45q37 0 37 -41v-113q0 -39 -37 -39h-45q-35 0 -35 39zM139 0v991h131v-991h-131zM291 1249v113q0 41 37 41h43q39 0 39 -41v-113q0 -39 -39 -39h-43q-37 0 -37 39z" />
<glyph unicode="&#xf0;" horiz-adv-x="919" d="M94 451q0 229 77.5 346.5t256.5 117.5q130 0 234 -79q-31 240 -134 368l-135 -123l-49 62l127 117q-100 79 -276 75l16 95q205 7 344 -97l125 115l47 -64l-115 -104q199 -206 199 -705q0 -110 -8.5 -194t-32 -163t-62.5 -130.5t-103.5 -82t-151.5 -30.5 q-186 0 -272.5 113.5t-86.5 362.5zM231 451q0 -198 53 -281.5t169 -83.5q49 0 85 14.5t60.5 46.5t40 72t23.5 100.5t11 121.5t3 147q0 84 -6 157q-99 60 -221 60q-62 0 -105 -24.5t-67.5 -72.5t-35 -110.5t-10.5 -146.5z" />
<glyph unicode="&#xf1;" horiz-adv-x="954" d="M131 0v991h111l8 -162q195 189 362 189q106 0 161.5 -70t55.5 -203v-745h-131v711q0 105 -27.5 149.5t-92.5 44.5q-68 0 -138 -40t-178 -130v-735h-131zM227 1206q-10 108 27 164.5t100 50.5q34 -3 68 -21.5t58 -39t56.5 -39.5t63.5 -23q45 -6 62.5 21t17.5 92h63 q9 -103 -27.5 -159t-101.5 -50q-37 3 -73.5 22t-60 40t-54 40t-57.5 23q-44 6 -62 -23.5t-18 -97.5h-62z" />
<glyph unicode="&#xf2;" horiz-adv-x="933" d="M92 496q0 285 85.5 403.5t289.5 118.5q205 0 290 -118t85 -404t-84.5 -403.5t-290.5 -117.5q-204 0 -289.5 118t-85.5 403zM193 1389l75 98l281 -299l-47 -62zM229 496q0 -159 23 -246.5t73.5 -125.5t141.5 -38q136 0 188 88t52 322t-52 321.5t-188 87.5 q-91 0 -141.5 -37.5t-73.5 -125.5t-23 -246z" />
<glyph unicode="&#xf3;" horiz-adv-x="933" d="M92 496q0 285 85.5 403.5t289.5 118.5q205 0 290 -118t85 -404t-84.5 -403.5t-290.5 -117.5q-204 0 -289.5 118t-85.5 403zM229 496q0 -159 23 -246.5t73.5 -125.5t141.5 -38q136 0 188 88t52 322t-52 321.5t-188 87.5q-91 0 -141.5 -37.5t-73.5 -125.5t-23 -246z M362 1188l281 299l76 -98l-309 -263z" />
<glyph unicode="&#xf4;" horiz-adv-x="933" d="M92 496q0 285 85.5 403.5t289.5 118.5q205 0 290 -118t85 -404t-84.5 -403.5t-290.5 -117.5q-204 0 -289.5 118t-85.5 403zM203 1200l217 254h96l217 -254l-47 -57l-213 203h-12l-215 -203zM229 496q0 -159 23 -246.5t73.5 -125.5t141.5 -38q136 0 188 88t52 322 t-52 321.5t-188 87.5q-91 0 -141.5 -37.5t-73.5 -125.5t-23 -246z" />
<glyph unicode="&#xf5;" horiz-adv-x="933" d="M92 496q0 285 85.5 403.5t289.5 118.5q205 0 290 -118t85 -404t-84.5 -403.5t-290.5 -117.5q-204 0 -289.5 118t-85.5 403zM209 1206q-10 108 27 164.5t100 50.5q34 -3 68 -21.5t58 -39t56.5 -39.5t63.5 -23q45 -6 62.5 21t17.5 92h63q9 -103 -27.5 -159t-101.5 -50 q-37 3 -73.5 22t-60.5 40t-54.5 40t-57.5 23q-44 6 -62 -23.5t-18 -97.5h-61zM229 496q0 -159 23 -246.5t73.5 -125.5t141.5 -38q136 0 188 88t52 322t-52 321.5t-188 87.5q-91 0 -141.5 -37.5t-73.5 -125.5t-23 -246z" />
<glyph unicode="&#xf6;" horiz-adv-x="933" d="M92 496q0 285 85.5 403.5t289.5 118.5q205 0 290 -118t85 -404t-84.5 -403.5t-290.5 -117.5q-204 0 -289.5 118t-85.5 403zM229 496q0 -159 23 -246.5t73.5 -125.5t141.5 -38q136 0 188 88t52 322t-52 321.5t-188 87.5q-91 0 -141.5 -37.5t-73.5 -125.5t-23 -246z M264 1249v113q0 41 35 41h45q37 0 37 -41v-113q0 -39 -37 -39h-45q-35 0 -35 39zM555 1249v113q0 41 37 41h43q39 0 39 -41v-113q0 -39 -39 -39h-43q-37 0 -37 39z" />
<glyph unicode="&#xf7;" horiz-adv-x="946" d="M113 555v100h718v-100h-718zM403 201v108q0 27 11.5 39t38.5 12h34q28 0 39 -11.5t11 -39.5v-108q0 -28 -11 -38.5t-39 -10.5h-34q-27 0 -38.5 11t-11.5 38zM403 897v111q0 28 11.5 39.5t38.5 11.5h34q28 0 39 -11.5t11 -39.5v-111q0 -28 -11 -38.5t-39 -10.5h-34 q-27 0 -38.5 11t-11.5 38z" />
<glyph unicode="&#xf8;" horiz-adv-x="935" d="M92 496q0 285 85.5 403.5t289.5 118.5q82 0 147 -19l52 134l63 -33l-49 -129q85 -50 123.5 -164.5t38.5 -310.5q0 -286 -84.5 -403.5t-290.5 -117.5q-91 0 -156 21l-53 -139l-63 30l53 140q-82 52 -119 165t-37 304zM229 496q0 -259 66 -342l278 735q-50 16 -106 16 q-91 0 -141.5 -37.5t-73.5 -125.5t-23 -246zM352 106q44 -20 115 -20q136 0 188 88t52 322q0 270 -74 352z" />
<glyph unicode="&#xf9;" horiz-adv-x="937" d="M127 246v745h131v-710q-2 -103 28.5 -148t100.5 -45q64 0 128 38t163 124v741h129v-991h-105l-12 150q-181 -175 -346 -175q-107 0 -162 68.5t-55 202.5zM197 1395l75 98l281 -299l-47 -61z" />
<glyph unicode="&#xfa;" horiz-adv-x="937" d="M127 246v745h131v-710q-2 -103 28.5 -148t100.5 -45q64 0 128 38t163 124v741h129v-991h-105l-12 150q-181 -175 -346 -175q-107 0 -162 68.5t-55 202.5zM367 1194l280 299l76 -98l-309 -262z" />
<glyph unicode="&#xfb;" horiz-adv-x="937" d="M127 246v745h131v-710q-2 -103 28.5 -148t100.5 -45q64 0 128 38t163 124v741h129v-991h-105l-12 150q-181 -175 -346 -175q-107 0 -162 68.5t-55 202.5zM207 1204l217 254h96l217 -254l-47 -57l-213 203h-12l-215 -203z" />
<glyph unicode="&#xfc;" horiz-adv-x="937" d="M127 246v745h131v-710q-2 -103 28.5 -148t100.5 -45q64 0 128 38t163 124v741h129v-991h-105l-12 150q-181 -175 -346 -175q-107 0 -162 68.5t-55 202.5zM266 1253v113q0 41 35 41h45q37 0 37 -41v-113q0 -39 -37 -39h-45q-35 0 -35 39zM557 1253v113q0 41 37 41h43 q39 0 39 -41v-113q0 -39 -39 -39h-43q-37 0 -37 39z" />
<glyph unicode="&#xfd;" horiz-adv-x="866" d="M33 991h139l219 -774q31 -114 31 -115h22q28 90 35 117l215 772h142l-324 -1061q-18 -55 -38 -100.5t-50 -90.5t-65.5 -77.5t-84.5 -55.5t-106 -30l-12 84q93 39 146.5 109t86.5 176l21 55h-35q-37 0 -49 35zM332 1188l280 299l76 -98l-309 -263z" />
<glyph unicode="&#xfe;" horiz-adv-x="940" d="M131 -418v1852h131v-373q0 -125 -6 -191q140 146 301 146q157 0 224 -122t67 -402q0 -283 -68.5 -400t-224.5 -117q-151 0 -299 91q6 -61 6 -183v-301h-131zM262 166q152 -82 252 -82q108 0 153.5 91t45.5 317q0 155 -20.5 245t-62 128t-110.5 38q-60 0 -121 -37 t-137 -114v-586z" />
<glyph unicode="&#xff;" horiz-adv-x="866" d="M33 991h139l219 -774q31 -114 31 -115h22q28 90 35 117l215 772h142l-324 -1061q-18 -55 -38 -100.5t-50 -90.5t-65.5 -77.5t-84.5 -55.5t-106 -30l-12 84q93 39 146.5 109t86.5 176l21 55h-35q-37 0 -49 35zM233 1249v113q0 41 35 41h45q37 0 37 -41v-113q0 -39 -37 -39 h-45q-35 0 -35 39zM524 1249v113q0 41 37 41h43q39 0 39 -41v-113q0 -39 -39 -39h-43q-37 0 -37 39z" />
<glyph unicode="&#x131;" horiz-adv-x="407" d="M139 0v991h131v-991h-131z" />
<glyph unicode="&#x152;" horiz-adv-x="1501" d="M104 707q0 277 43.5 434.5t139 227t264.5 69.5q87 0 145 -14t127 -50q50 41 119 41q325 0 475 -12l-6 -103h-424q-113 0 -113 -149v-344l472 -2v-109l-472 -2v-434q0 -147 113 -147h424l6 -103q-154 -12 -487 -12q-64 0 -113 43q-66 -36 -124 -51t-142 -15 q-169 0 -265 70t-139 227.5t-43 434.5zM246 707q0 -233 29 -364.5t94.5 -190t181.5 -58.5q119 0 205 41q-19 52 -19 109v925q0 57 19 109q-93 41 -205 41q-117 0 -182 -57t-94 -188t-29 -367z" />
<glyph unicode="&#x153;" horiz-adv-x="1497" d="M92 496q0 285 85.5 403.5t289.5 118.5q114 0 188.5 -33.5t116.5 -107.5q41 74 112 107.5t179 33.5q350 0 350 -297q0 -159 -56.5 -222t-191.5 -63h-323q5 -136 34.5 -212.5t82.5 -106t145 -29.5q109 0 276 25l13 -88q-50 -23 -141.5 -36.5t-166.5 -13.5q-227 0 -311 146 q-42 -76 -117 -111t-190 -35q-204 0 -289.5 118t-85.5 403zM229 496q0 -159 23 -246.5t73.5 -125.5t141.5 -38q127 0 180.5 76t59.5 272l-2 68v61q-6 193 -59 267.5t-179 74.5q-91 0 -141.5 -37.5t-73.5 -125.5t-23 -246zM840 537h317q71 0 100 41t25 141q-3 95 -54.5 140.5 t-160.5 45.5q-120 0 -170.5 -75.5t-56.5 -264.5v-28z" />
<glyph unicode="&#x178;" horiz-adv-x="931" d="M18 1413h146l244 -620q14 -34 53 -152h12q23 79 51 150l244 622h141l-377 -907v-506h-133v506zM262 1618v113q0 41 35 41h45q37 0 37 -41v-113q0 -39 -37 -39h-45q-35 0 -35 39zM553 1618v113q0 41 37 41h43q39 0 39 -41v-113q0 -39 -39 -39h-43q-37 0 -37 39z" />
<glyph unicode="&#x192;" horiz-adv-x="720" d="M-78 -274l17 96h110q74 0 107.5 42t40.5 146l51 690h-162l8 97l162 8l27 344q19 285 252 285q93 0 163 -13l-16 -98h-117q-78 0 -112 -39.5t-41 -146.5l-25 -332h242l-11 -105h-239l-51 -702q-11 -143 -67.5 -214t-174.5 -71q-105 0 -164 13z" />
<glyph unicode="&#x2c6;" horiz-adv-x="686" d="M80 1200l217 254h96l217 -254l-47 -57l-213 203h-12l-215 -203z" />
<glyph unicode="&#x2c7;" horiz-adv-x="686" d="M80 1411l43 57l215 -188h12l215 188l45 -57l-235 -252h-62z" />
<glyph unicode="&#x2d8;" horiz-adv-x="612" d="M63 1407l68 12q0 -80 46 -124t132 -44q83 0 129.5 44.5t46.5 123.5l68 -12q5 -116 -61.5 -186t-182.5 -70q-118 0 -185 70t-61 186z" />
<glyph unicode="&#x2d9;" horiz-adv-x="360" d="M119 1233v121q0 43 41 43h43q39 0 39 -43v-121q0 -41 -39 -41h-43q-41 0 -41 41z" />
<glyph unicode="&#x2da;" horiz-adv-x="493" d="M72 1305q0 87 51.5 147.5t122.5 60.5q73 0 124.5 -60.5t51.5 -147.5t-51 -147t-125 -60q-72 0 -123 60t-51 147zM145 1305q0 -60 29.5 -98t71.5 -38q43 0 71.5 37.5t28.5 98.5q0 60 -28.5 98.5t-71.5 38.5t-72 -38.5t-29 -98.5z" />
<glyph unicode="&#x2db;" horiz-adv-x="415" d="M70.5 -324.5q-0.5 37.5 9.5 78.5q36 125 158 250l59 -4q-90 -132 -123 -242q-26 -82 12.5 -108.5t118.5 10.5l17 -57q-59 -30 -107.5 -37t-77.5 6t-47.5 39.5t-19 64z" />
<glyph unicode="&#x2dc;" horiz-adv-x="686" d="M86 1208q-10 108 27 164.5t100 50.5q34 -3 68 -21.5t58 -39t56.5 -39.5t63.5 -23q45 -6 62.5 21t17.5 92h63q9 -103 -27.5 -159t-101.5 -50q-37 3 -73.5 22t-60.5 40t-54.5 40t-57.5 23q-44 6 -62 -23.5t-18 -97.5h-61z" />
<glyph unicode="&#x2dd;" horiz-adv-x="741" d="M92 1145l182 344l97 -68l-219 -319zM360 1145l181 344l96 -68l-219 -319z" />
<glyph unicode="&#x3a9;" horiz-adv-x="1183" d="M86 0v119h178q58 0 107 -8q-130 116 -186 263.5t-56 377.5q0 349 109 517.5t354 168.5q243 0 353 -169.5t110 -518.5q0 -233 -56 -378t-186 -261q78 8 107 8h178v-119h-410v113q125 114 175 255.5t50 366.5q0 307 -75 445.5t-246 138.5q-175 0 -249.5 -138.5 t-74.5 -449.5q0 -233 51.5 -365t176.5 -253v-113h-410z" />
<glyph unicode="&#x3c0;" horiz-adv-x="1058" d="M45 887v104h969l-2 -104h-156v-887h-131v887h-391v-887h-131v887h-158z" />
<glyph unicode="&#x401;" horiz-adv-x="921" d="M137 231v951q0 106 57.5 169.5t155.5 63.5q334 0 488 -12l-9 -103h-456q-101 0 -101 -149v-346h494v-109h-494v-436q0 -147 101 -147h456l9 -103q-154 -12 -488 -12q-98 0 -155.5 63.5t-57.5 169.5zM305 1665v113q0 39 37 39h45q35 0 35 -39v-113q0 -41 -35 -41h-45 q-37 0 -37 41zM596 1665v113q0 39 39 39h43q37 0 37 -39v-113q0 -41 -37 -41h-43q-39 0 -39 41z" />
<glyph unicode="&#x402;" horiz-adv-x="1239" d="M41 1294v119h872v-119h-368v-528q161 133 338 133q64 0 112.5 -20.5t88 -67t60.5 -132.5t21 -208q0 -261 -109 -372.5t-313 -102.5l-12 96q77 6 129 24.5t92 58.5t59 110t19 174q0 99 -11 162.5t-36 98t-58.5 47.5t-84.5 13q-74 0 -140.5 -29t-154.5 -96v-655h-137v1294 h-367z" />
<glyph unicode="&#x403;" horiz-adv-x="851" d="M141 0v1169q0 107 58 176.5t147 69.5q321 0 471 -12l-6 -103h-422q-113 0 -113 -153v-1147h-135zM389 1559l281 299l75 -99l-309 -262z" />
<glyph unicode="&#x404;" horiz-adv-x="950" d="M104 707q0 273 44 430.5t142 229t267 71.5q189 0 313 -39l-14 -103q-147 21 -299 21q-164 0 -234 -113.5t-77 -396.5l489 -2v-105l-491 -2q0 -229 30 -358t97.5 -186.5t185.5 -57.5q184 0 309 25l15 -103q-128 -43 -324 -43q-169 0 -267 71.5t-142 229.5t-44 431z" />
<glyph unicode="&#x405;" horiz-adv-x="925" d="M92 1069q0 83 9 143t30.5 101t49 65.5t72 37.5t91 17t115.5 3q187 0 336 -33l-11 -98q-188 12 -317 12q-50 0 -77 -1.5t-59 -9.5t-47.5 -23.5t-30 -43.5t-19.5 -70.5t-5 -103.5q0 -126 34 -182.5t114 -77.5l231 -62q128 -32 180 -122.5t52 -264.5q0 -82 -9.5 -142.5 t-31 -102.5t-50 -68.5t-74 -41t-95 -19.5t-119.5 -5q-187 0 -352 31l10 101q242 -13 346 -13q72 1 113 10t71.5 37.5t41.5 79t11 135.5q0 133 -33.5 188.5t-113.5 76.5l-238 63q-121 30 -173 122t-52 261z" />
<glyph unicode="&#x406;" horiz-adv-x="428" d="M147 0v1413h136v-1413h-136z" />
<glyph unicode="&#x407;" horiz-adv-x="425" d="M8 1618v113q0 38 37 38h45q35 0 35 -38v-113q0 -41 -35 -41h-45q-37 0 -37 41zM147 0v1413h134v-1413h-134zM301 1618v113q0 38 37 38h43q37 0 37 -38v-113q0 -41 -37 -41h-43q-37 0 -37 41z" />
<glyph unicode="&#x408;" horiz-adv-x="557" d="M51 4l15 94h84q133 0 133 172v1143h135v-1139q0 -142 -56.5 -216t-162.5 -74q-74 0 -148 20z" />
<glyph unicode="&#x409;" horiz-adv-x="1597" d="M37 90q45 25 83.5 70t76.5 133q52 125 70.5 271.5t38.5 506.5q3 62 5 96q15 246 230 246h366v-590h242q209 0 290 -94t81 -328q0 -124 -19 -204.5t-63.5 -128t-108 -66t-160.5 -18.5q-254 0 -395 16l2 10v1293h-221q-55 0 -81.5 -39t-31.5 -115q-31 -451 -50.5 -607 t-72.5 -288q-43 -116 -108 -180t-162 -76zM907 104q63 -2 242 -2q94 0 142.5 25t69.5 88.5t21 187.5q0 174 -47 240t-186 66h-242v-605z" />
<glyph unicode="&#x40a;" horiz-adv-x="1613" d="M147 0v1413h136v-594h508v594h135v-594h239q209 0 290 -93t81 -325q0 -165 -36 -255.5t-109.5 -126t-204.5 -35.5q-254 0 -395 16v707h-508v-707h-136zM926 104q63 -2 239 -2q95 0 143.5 25t69.5 88t21 186q0 174 -47 240t-187 66h-239v-603z" />
<glyph unicode="&#x40b;" horiz-adv-x="1280" d="M41 1294v119h872v-119h-368v-530q187 135 383 135q132 0 195 -77t63 -234v-588h-133v561q0 117 -39 167t-131 50q-89 0 -164.5 -28.5t-173.5 -98.5v-651h-137v1294h-367z" />
<glyph unicode="&#x40c;" horiz-adv-x="985" d="M147 0v1413h134v-457q0 -66 -11 -163h129q45 0 83.5 19.5t69.5 58.5t57 86.5t50 114.5t44 131t45 148q12 41 18 62h137q-10 -34 -30 -100q-29 -99 -44.5 -147.5t-43.5 -127t-51 -119t-55 -86t-69.5 -67.5t-81.5 -27v-4q35 -4 65.5 -16.5t57.5 -38.5t48 -52.5t43 -73 t38 -84t37 -102t35.5 -110.5t38.5 -125.5t41 -132.5h-144q-14 46 -39 133q-32 107 -48 158t-43.5 129t-49.5 114t-54.5 76.5t-69.5 56t-83 15.5h-131q11 -101 11 -160v-522h-134zM412 1559l280 299l76 -99l-309 -262z" />
<glyph unicode="&#x40d;" horiz-adv-x="1138" d="M147 0v1413h132v-1057q0 -42 -9 -170h9q22 63 61 158l485 1069h168v-1413h-133v1065q0 81 6 164h-6q-28 -84 -59 -152l-488 -1077h-166zM307 1759l76 99l281 -299l-48 -62z" />
<glyph unicode="&#x40e;" horiz-adv-x="921" d="M37 1413h139l238 -848q10 -37 37 -37h63l248 885h139l-309 -1071q-19 -63 -34 -106t-38.5 -92.5t-47.5 -79.5t-57.5 -51.5t-72.5 -24.5q-41 -5 -101 3t-100 23l17 97q44 -6 72 -9.5t56 -0.5t43 5.5t32.5 19t26.5 29.5t22.5 47t22 60.5t24.5 81.5l22 70h-65q-86 0 -111 88 zM217 1790l68 12q0 -80 46 -124t132 -44q83 0 129.5 44.5t46.5 123.5l68 -12q5 -116 -61.5 -186t-182.5 -70q-118 0 -185 70t-61 186z" />
<glyph unicode="&#x40f;" horiz-adv-x="1110" d="M147 0v1413h136v-1302h544v1302h138v-1413h-353l-6 -309h-92l-8 309h-359z" />
<glyph unicode="&#x410;" horiz-adv-x="1021" d="M18 0l369 1374q9 39 51 39h146q40 0 49 -39l371 -1374h-140l-119 467h-469l-118 -467h-140zM305 584h410l-154 608q-26 103 -29 115h-43q-8 -37 -28 -115z" />
<glyph unicode="&#x411;" horiz-adv-x="987" d="M147 0v1413q195 10 351 10q150 0 342 -10l-13 -110h-544v-515h247q208 0 289.5 -90t81.5 -315q0 -102 -16 -173.5t-45 -115.5t-79.5 -68.5t-108.5 -33t-144 -8.5q-213 0 -358 16h-3zM283 100q66 -2 247 -2q95 0 143.5 23.5t69.5 84.5t21 181q0 168 -47.5 230.5 t-186.5 62.5h-247v-580z" />
<glyph unicode="&#x412;" horiz-adv-x="1021" d="M147 0v1413q137 17 363 17q109 0 178.5 -16.5t116 -59t65.5 -113t19 -180.5q0 -154 -46.5 -233t-146.5 -91v-8q123 -13 174.5 -106.5t51.5 -270.5q0 -110 -19 -180.5t-64 -112.5t-110.5 -58.5t-167.5 -16.5q-269 0 -414 16zM281 100q68 -2 260 -2q141 0 193 55t52 218 q0 92 -13 150t-44.5 93.5t-78 49.5t-120.5 16h-249v-580zM281 784h247q88 1 136 23t71 78.5t23 161.5q0 82 -12.5 133.5t-44 82t-77 41.5t-118.5 11q-166 0 -225 -2v-529z" />
<glyph unicode="&#x413;" horiz-adv-x="851" d="M141 0v1169q0 107 58 176.5t147 69.5q321 0 471 -12l-6 -103h-422q-113 0 -113 -153v-1147h-135z" />
<glyph unicode="&#x414;" horiz-adv-x="1136" d="M37 111h98q89 219 128.5 479.5t49.5 576.5q5 117 64.5 181.5t163.5 64.5h401v-1302h141v-420h-94l-14 309h-830l-14 -309h-94v420zM266 111h543v1192h-246q-61 0 -88.5 -36t-32.5 -116q-13 -334 -51.5 -582.5t-124.5 -457.5z" />
<glyph unicode="&#x415;" horiz-adv-x="921" d="M137 231v951q0 106 57.5 169.5t155.5 63.5q334 0 488 -12l-9 -103h-456q-101 0 -101 -149v-346h494v-109h-494v-436q0 -147 101 -147h456l9 -103q-154 -12 -488 -12q-98 0 -155.5 63.5t-57.5 169.5z" />
<glyph unicode="&#x416;" horiz-adv-x="1490" d="M53 0q13 43 37 125q34 113 51 167.5t46.5 138.5t53 124.5t57 87t72 67t85.5 25.5v4q-44 5 -81 28.5t-68 64.5t-56 88.5t-49.5 115.5t-44 130t-44.5 146q-20 67 -30 101h137q8 -27 25 -81q29 -97 44.5 -145t43 -124t49.5 -113.5t52.5 -80t65 -59.5t74.5 -17h123 q-10 66 -10 163v457h129v-457q0 -83 -12 -163h112q112 0 194 157q52 99 131 358q28 91 32 105h137q-86 -284 -100 -323q-78 -226 -167 -302q-49 -41 -108 -49v-4q56 -6 103.5 -42t78.5 -77t68.5 -136.5t56.5 -155.5t60 -200q8 -26 12.5 -41.5t11.5 -39t13 -43.5h-142 q-15 48 -36 117.5t-33.5 110.5t-31 98t-31 90.5t-31 76t-34 66.5t-36.5 51t-42.5 40.5t-47.5 22.5t-55 9h-115q12 -110 12 -160v-522h-129v522q0 68 10 160h-123q-29 0 -55 -9t-47.5 -22.5t-42.5 -40.5t-36.5 -51t-34 -66.5t-31 -76t-31 -90.5t-31 -98t-33.5 -110.5 t-36 -117.5h-142z" />
<glyph unicode="&#x417;" horiz-adv-x="905" d="M61 23l13 98q4 0 64.5 -6.5t90.5 -9.5t88 -6t109 -3q93 0 142.5 22.5t73.5 81.5t24 171q0 179 -54.5 243t-197.5 64h-189v108h189q125 0 173 54t48 207q0 111 -24.5 169t-75 79.5t-144.5 21.5q-57 0 -113 -3.5t-107.5 -9t-72.5 -6.5l-10 101q135 31 309 31 q107 0 175.5 -16.5t115 -59t65.5 -113t19 -180.5q0 -154 -46 -233t-146 -91v-8q123 -13 174 -106.5t51 -270.5q0 -110 -19 -180.5t-63.5 -112.5t-109 -58.5t-164.5 -16.5q-239 0 -388 39z" />
<glyph unicode="&#x418;" horiz-adv-x="1138" d="M147 0v1413h132v-1057q0 -42 -9 -170h9q22 63 61 158l485 1069h168v-1413h-133v1065q0 81 6 164h-6q-28 -84 -59 -152l-488 -1077h-166z" />
<glyph unicode="&#x419;" horiz-adv-x="1138" d="M147 0v1413h132v-1057q0 -42 -9 -170h9q22 63 61 158l485 1069h168v-1413h-133v1065q0 81 6 164h-6q-28 -84 -59 -152l-488 -1077h-166zM336 1804h100q0 -93 38.5 -143.5t107.5 -50.5q68 0 105.5 50.5t37.5 143.5h100q5 -118 -61 -194t-182 -76q-117 0 -184.5 76.5 t-61.5 193.5z" />
<glyph unicode="&#x41a;" horiz-adv-x="985" d="M147 0v1413h134v-457q0 -66 -11 -163h129q45 0 83.5 19.5t69.5 58.5t57 86.5t50 114.5t44 131t45 148q12 41 18 62h137q-10 -34 -30 -100q-29 -99 -44.5 -147.5t-43.5 -127t-51 -119t-55 -86t-69.5 -67.5t-81.5 -27v-4q35 -4 65.5 -16.5t57.5 -38.5t48 -52.5t43 -73 t38 -84t37 -102t35.5 -110.5t38.5 -125.5t41 -132.5h-144q-14 46 -39 133q-32 107 -48 158t-43.5 129t-49.5 114t-54.5 76.5t-69.5 56t-83 15.5h-131q11 -101 11 -160v-522h-134z" />
<glyph unicode="&#x41b;" horiz-adv-x="1071" d="M18 102q55 24 94 67t68 124q49 132 69.5 289.5t47.5 588.5q7 120 63.5 181t157.5 61h406v-1413h-136v1303h-237q-112 0 -121 -154q-32 -477 -50 -606q-23 -168 -73 -289q-44 -112 -114 -179t-162 -77z" />
<glyph unicode="&#x41c;" horiz-adv-x="1439" d="M123 0l45 1354q3 59 57 59h158q45 0 57 -47l219 -922q42 -174 46 -192h30q14 67 45 194l219 920q12 47 60 47h155q55 0 58 -59l47 -1354h-135l-43 1300h-35l-262 -1107q-15 -46 -60 -46h-127q-46 0 -61 46l-264 1107h-33l-41 -1300h-135z" />
<glyph unicode="&#x41d;" horiz-adv-x="1101" d="M147 0v1413h136v-600h536v600h135v-1413h-135v698h-536v-698h-136z" />
<glyph unicode="&#x41e;" d="M104 707q0 277 43.5 434.5t139 227t264.5 69.5q167 0 262.5 -69.5t139.5 -227.5t44 -434q0 -208 -23 -345.5t-77 -225t-137.5 -124.5t-208.5 -37q-169 0 -265 70t-139 227.5t-43 434.5zM246 707q0 -233 29 -364.5t94.5 -190t181.5 -58.5q115 0 180 58.5t94 190t29 364.5 q0 175 -15 289.5t-51.5 188t-93 104t-143.5 30.5q-116 0 -181.5 -58.5t-94.5 -189.5t-29 -364z" />
<glyph unicode="&#x41f;" horiz-adv-x="1101" d="M147 0v1413h809v-1413h-135v1303h-538v-1303h-136z" />
<glyph unicode="&#x420;" horiz-adv-x="970" d="M147 0v1413q149 17 390 17q138 0 213.5 -38.5t110 -131t34.5 -263.5t-34 -264t-106.5 -130.5t-203.5 -37.5q-133 0 -268 15v-580h-136zM283 682h249q88 0 135.5 27t70 94.5t22.5 193.5q0 186 -49 252t-179 66q-183 0 -249 -2v-631z" />
<glyph unicode="&#x421;" horiz-adv-x="937" d="M104 707q0 205 23 342t76 225t136 126t208 38q106 0 171.5 -8.5t135.5 -30.5l-14 -101q-133 19 -293 19q-114 0 -178.5 -57.5t-93.5 -188.5t-29 -364t29 -364t93.5 -189t178.5 -58q186 0 315 23l17 -101q-133 -43 -332 -43q-166 0 -261.5 71.5t-138.5 229.5t-43 431z" />
<glyph unicode="&#x422;" horiz-adv-x="954" d="M41 1294v119h872v-119h-368v-1294h-137v1294h-367z" />
<glyph unicode="&#x423;" horiz-adv-x="921" d="M37 1413h139l238 -848q10 -37 37 -37h63l248 885h139l-309 -1071q-19 -63 -34 -106t-38.5 -92.5t-47.5 -79.5t-57.5 -51.5t-72.5 -24.5q-41 -5 -101 3t-100 23l17 97q44 -6 72 -9.5t56 -0.5t43 5.5t32.5 19t26.5 29.5t22.5 47t22 60.5t24.5 81.5l22 70h-65q-86 0 -111 88 z" />
<glyph unicode="&#x424;" horiz-adv-x="1351" d="M86 723q0 220 51.5 349t164 190.5t306.5 68.5v205h135l2 -205q287 -12 404 -148t117 -460q0 -319 -117.5 -453.5t-403.5 -146.5v-207h-137v207q-287 10 -404.5 145t-117.5 455zM225 723q0 -267 83.5 -372.5t303.5 -114.5v981q-149 -6 -231.5 -53.5t-119 -151.5 t-36.5 -289zM739 236q220 9 303.5 114.5t83.5 372.5q0 185 -36.5 289t-119 151.5t-231.5 53.5v-981z" />
<glyph unicode="&#x425;" horiz-adv-x="1001" d="M43 0l322 733l-302 680h144l272 -625h43l271 625h147l-305 -680l326 -733h-148l-295 684h-35l-295 -684h-145z" />
<glyph unicode="&#x426;" horiz-adv-x="1136" d="M147 0v1413h136v-1302h524v1302h137v-1302h139v-420h-94l-14 309h-828z" />
<glyph unicode="&#x427;" horiz-adv-x="1030" d="M100 838v575h136v-549q0 -115 38 -166t125 -51q92 0 170.5 29t178.5 102v635h135v-1413h-135v668q-194 -142 -396 -142q-252 0 -252 312z" />
<glyph unicode="&#x428;" horiz-adv-x="1529" d="M147 0v1413h134v-1302h417v1302h133v-1302h418v1302h133v-1413h-1235z" />
<glyph unicode="&#x429;" horiz-adv-x="1562" d="M147 0v1413h134v-1302h411v1302h133v-1302h414v1302h131v-1302h139v-420h-94l-12 309h-1256z" />
<glyph unicode="&#x42a;" horiz-adv-x="1230" d="M39 1294v119h500v-590h245q208 0 288.5 -94t80.5 -328q0 -165 -36 -255.5t-109.5 -126t-204.5 -35.5q-257 0 -400 16v1294h-364zM539 104q63 -2 245 -2q71 0 114 12.5t71 47t38.5 90.5t10.5 149q0 174 -47.5 241t-186.5 67h-245v-605z" />
<glyph unicode="&#x42b;" horiz-adv-x="1390" d="M147 0v1413h136v-590h245q209 0 291 -94t82 -328q0 -124 -19 -204.5t-63 -128t-108 -66t-162 -18.5q-256 0 -399 16h-3zM283 104q63 -2 245 -2q95 0 144 25t70.5 88t21.5 186q0 174 -47.5 241t-188.5 67h-245v-605zM1110 0v1413h133v-1413h-133z" />
<glyph unicode="&#x42c;" horiz-adv-x="978" d="M147 0v1413h136v-590h245q209 0 291 -94t82 -328q0 -124 -19 -204.5t-63 -128t-108 -66t-162 -18.5q-256 0 -399 16h-3zM283 104q63 -2 245 -2q95 0 144 25t70.5 88t21.5 186q0 174 -47.5 241t-188.5 67h-245v-605z" />
<glyph unicode="&#x42d;" horiz-adv-x="950" d="M68 18l16 103q122 -25 309 -25q118 0 185 57t98 187t31 358l-492 2v105l490 2q-7 282 -78 396t-234 114q-152 0 -299 -21l-16 103q71 22 139 30.5t174 8.5q128 0 213 -38t140 -126t78.5 -225t23.5 -342q0 -273 -44.5 -431t-142.5 -229.5t-268 -71.5q-193 0 -323 43z" />
<glyph unicode="&#x42e;" horiz-adv-x="1519" d="M147 0v1413h136v-622h262q6 243 50 383t133.5 202t240.5 62q169 0 264.5 -69.5t138.5 -227t43 -434.5t-43 -434.5t-138.5 -227.5t-264.5 -70q-156 0 -246.5 67.5t-133 219.5t-44.5 418h-262v-680h-136zM678 707q0 -233 27.5 -364.5t90 -190t173.5 -58.5q116 0 181.5 58.5 t94.5 190t29 364.5t-29 364t-94.5 189.5t-181.5 58.5q-111 0 -173.5 -58.5t-90 -189.5t-27.5 -364z" />
<glyph unicode="&#x42f;" horiz-adv-x="1009" d="M72 0l106 432q22 83 63.5 132.5t90.5 64.5l-2 12q-73 13 -120.5 65.5t-68 129.5t-20.5 180q0 226 83.5 320t274.5 94q236 0 383 -17v-1413h-135v590q-26 0 -111 -1t-145 -1q-58 0 -95.5 -38t-58.5 -124l-100 -426h-145zM258 1010q0 -148 49 -226.5t164 -78.5h256v608 q-63 2 -246 2q-124 0 -173.5 -65.5t-49.5 -239.5z" />
<glyph unicode="&#x430;" horiz-adv-x="907" d="M88 252v115q0 115 57.5 178t161.5 63h342v105q-2 99 -37.5 145.5t-126.5 46.5q-131 0 -350 -28l-12 96q254 45 387 45q137 0 203.5 -70t66.5 -235v-713h-102l-16 164q-56 -71 -146 -125.5t-190 -54.5q-109 0 -173.5 70t-64.5 198zM223 264q0 -85 30.5 -125.5t96.5 -40.5 q65 -2 147.5 41.5t151.5 118.5v250l-317 -4q-58 -3 -83.5 -41t-25.5 -113v-86z" />
<glyph unicode="&#x431;" horiz-adv-x="944" d="M119 604q0 119 4 203.5t16 167t33 139.5t54.5 107.5t82.5 85.5t115 59q37 13 110.5 31.5t128 41.5t113.5 68l33 -100q-58 -46 -110.5 -69.5t-127 -42.5t-104.5 -29q-63 -23 -107 -60.5t-69.5 -90t-39 -107t-20.5 -127.5q-10 -69 -14 -144h4q16 47 34 80t52 70t90.5 56.5 t132.5 19.5q176 0 247 -110.5t71 -373.5q0 -122 -16 -209t-55.5 -156.5t-112.5 -104t-181 -34.5q-56 0 -102.5 10t-81.5 26t-62.5 45t-46 59t-32 75t-21 85.5t-12 100t-5.5 109t-1 119.5zM256 481q0 -223 50.5 -308t178.5 -85q126 0 176 85.5t50 307.5q0 212 -46 290.5 t-169 78.5q-60 0 -103.5 -17t-69.5 -46t-41.5 -77.5t-20.5 -101.5t-5 -127z" />
<glyph unicode="&#x432;" horiz-adv-x="911" d="M133 0v989q120 12 322 12q190 0 263 -55t73 -209q0 -106 -41 -161t-132 -64v-4q109 -10 156 -74.5t47 -187.5q0 -149 -71.5 -203.5t-249.5 -54.5q-231 0 -367 12zM256 92h223q120 0 164.5 35.5t44.5 140.5q0 112 -47 153.5t-170 41.5h-215v-371zM256 559h215 q112 0 154.5 34.5t42.5 133.5q0 100 -47.5 136t-169.5 36h-195v-340z" />
<glyph unicode="&#x433;" horiz-adv-x="757" d="M129 0v786q0 101 44.5 155t129.5 54q287 0 418 -12l-4 -94h-359q-52 0 -75 -31.5t-23 -101.5v-756h-131z" />
<glyph unicode="&#x434;" horiz-adv-x="960" d="M47 106h82q112 257 133 672q9 213 201 213h325v-885h109v-403h-86l-12 297h-654l-10 -297h-88v403zM246 106h418v783h-181q-96 0 -102 -129q-20 -401 -135 -654z" />
<glyph unicode="&#x435;" horiz-adv-x="888" d="M94 500q0 286 85 402t282 116q176 0 258 -76.5t82 -232.5q3 -277 -189 -277h-379q5 -134 33.5 -209.5t81 -105t141.5 -29.5q114 0 281 25l12 -88q-52 -23 -142 -36.5t-167 -13.5q-205 0 -292 120t-87 405zM231 535h349q94 0 90 172q0 105 -47.5 151.5t-155.5 46.5 q-131 0 -182 -80t-54 -290z" />
<glyph unicode="&#x436;" horiz-adv-x="1296" d="M59 0q77 246 107 316q58 137 137 178q33 17 74 22v4q-25 3 -46.5 11.5t-39.5 19.5t-35.5 31.5t-30 38t-27.5 49t-24.5 53.5t-24 63.5t-23 67.5t-24.5 75q-13 41 -20 62h131q71 -212 98 -270q57 -126 131 -148q18 -6 39 -6h121q-8 52 -8 117v307h117v-307q0 -58 -9 -117 h113q89 0 151 113q38 68 104 270v1v2l13 38h134q-7 -21 -20 -62q-29 -90 -43.5 -132.5t-41.5 -104.5t-51 -90.5t-59.5 -52.5t-79.5 -29v-4q30 -3 55 -13t47 -28.5t39.5 -38.5t35 -53t31.5 -63.5t30.5 -78t29.5 -87t32 -100.5q11 -36 17 -54h-133q-8 25 -24 72 q-16 50 -24 73.5t-22.5 64.5t-22.5 60t-21 49.5t-22.5 45t-23.5 35t-26.5 30t-28 19.5t-32.5 14t-36 4h-123q11 -68 11 -107v-360h-117v360q0 45 10 107h-129q-37 -1 -67 -18t-52.5 -45t-45 -78t-41.5 -103t-46 -133q-6 -19 -9.5 -30t-9.5 -28t-11 -32h-134z" />
<glyph unicode="&#x437;" horiz-adv-x="815" d="M66 10l10 101q198 -17 295 -17q123 0 169 38.5t46 137.5q0 108 -46 147.5t-167 41.5h-189v96l189 2q111 0 150.5 35.5t39.5 136.5q0 102 -47 135t-182 33q-140 0 -234 -16l-10 98q102 29 246 29q200 0 278 -54t78 -209q0 -111 -38 -167t-130 -66v-4q104 -10 150.5 -73.5 t46.5 -190.5q0 -145 -77.5 -202.5t-262.5 -57.5q-173 0 -315 26z" />
<glyph unicode="&#x438;" horiz-adv-x="966" d="M133 0v991h119v-690q0 -45 -4 -135h4q6 15 55 117l393 708h134v-991h-119v692q0 37 4 135h-4q-10 -30 -56 -114l-393 -713h-133z" />
<glyph unicode="&#x439;" horiz-adv-x="966" d="M133 0v991h119v-690q0 -45 -4 -135h4q6 15 55 117l393 708h134v-991h-119v692q0 37 4 135h-4q-10 -30 -56 -114l-393 -713h-133zM236 1434h100q0 -94 38 -144.5t107 -50.5q68 0 106 51t38 144h100q5 -118 -61.5 -194.5t-182.5 -76.5q-117 0 -184 76.5t-61 194.5z" />
<glyph unicode="&#x43a;" horiz-adv-x="880" d="M133 0v991h131v-307q0 -65 -8 -117h117q28 0 52 7t45 22.5t38 32.5t34 47t29.5 55t28 67t26 73t27.5 81l4.5 13.5l4 12l4.5 13.5h133q-73 -217 -96 -270q-61 -139 -140 -181q-33 -17 -71 -22v-4q108 -11 175 -114q49 -75 116 -279q7 -19 20 -61l20 -60h-137 q-77 232 -103 291q-54 123 -125 157q-35 16 -79 17h-125q10 -62 10 -105v-360h-131z" />
<glyph unicode="&#x43b;" horiz-adv-x="921" d="M33 92q61 23 92 59t47 91q11 34 21 82t16.5 88.5t13.5 102.5t10 93.5t8.5 94t6.5 73.5q9 109 57.5 162t145.5 53h337v-991h-131v889h-182q-52 0 -75 -30.5t-29 -100.5q-1 -9 -7.5 -80t-8.5 -90t-8.5 -79.5t-11.5 -88.5t-12.5 -74t-15.5 -80t-18 -65q-27 -93 -88 -147.5 t-154 -63.5z" />
<glyph unicode="&#x43c;" horiz-adv-x="1226" d="M117 0l33 940q0 51 51 51h139q36 0 51 -43l172 -616q3 -10 17 -62t20 -80h25q8 28 20.5 78t16.5 64l174 616q12 43 51 43h139q51 0 51 -51l35 -940h-123l-31 891h-28l-211 -746q-12 -43 -53 -43h-109q-39 0 -51 43l-211 746h-29l-30 -891h-119z" />
<glyph unicode="&#x43d;" horiz-adv-x="956" d="M133 0v991h129v-411h434v411h127v-991h-127v477h-434v-477h-129z" />
<glyph unicode="&#x43e;" horiz-adv-x="937" d="M94 496q0 285 85.5 403.5t289.5 118.5q205 0 290 -118t85 -404t-84.5 -403.5t-290.5 -117.5q-204 0 -289.5 118t-85.5 403zM231 496q0 -159 23 -246.5t73.5 -125.5t141.5 -38q136 0 188 88t52 322t-52 321.5t-188 87.5q-91 0 -141.5 -37.5t-73.5 -125.5t-23 -246z" />
<glyph unicode="&#x43f;" horiz-adv-x="946" d="M133 0v991h680v-991h-127v887h-424v-887h-129z" />
<glyph unicode="&#x440;" horiz-adv-x="956" d="M133 -418v1409h107l12 -162q67 89 156 139t176 50q146 0 211 -127.5t65 -398.5q0 -279 -72.5 -398t-230.5 -119q-154 0 -299 103q6 -68 6 -195v-301h-131zM264 164q88 -39 145.5 -56.5t116.5 -17.5q75 0 117 36.5t62 124t20 243.5q0 226 -41.5 317.5t-140.5 91.5 q-66 0 -129.5 -40t-149.5 -130v-569z" />
<glyph unicode="&#x441;" horiz-adv-x="808" d="M94 496q0 287 86 404.5t293 117.5q156 0 256 -45l-18 -84q-93 16 -215 16q-101 0 -157 -36.5t-82 -124.5t-26 -248t26 -247.5t82 -124t157 -36.5q130 0 235 23l12 -91q-121 -45 -270 -45q-208 0 -293.5 117t-85.5 404z" />
<glyph unicode="&#x442;" horiz-adv-x="806" d="M45 885v106h717v-106h-295v-885h-129v885h-293z" />
<glyph unicode="&#x443;" horiz-adv-x="870" d="M35 991h139l219 -774q31 -114 31 -115h22q28 90 35 117l215 772h142l-324 -1061q-64 -203 -152 -282q-109 -93 -290 -64l12 88q129 -7 195 54q59 59 112 219l21 55h-35q-37 0 -49 35z" />
<glyph unicode="&#x444;" horiz-adv-x="1179" d="M92 496q0 268 100.5 389t337.5 131v418h121v-418q236 -12 336 -132.5t100 -387.5q0 -266 -100 -386.5t-336 -132.5v-395h-121v395q-236 10 -337 131t-101 388zM219 496q0 -216 70 -306.5t243 -99.5v813q-174 -9 -243.5 -99t-69.5 -308zM647 90q174 9 244 99.5t70 306.5 q0 218 -70 308t-244 99v-813z" />
<glyph unicode="&#x445;" horiz-adv-x="872" d="M43 0l272 514l-254 477h144l217 -422h29l217 422h143l-252 -477l270 -514h-141l-242 465h-20l-240 -465h-143z" />
<glyph unicode="&#x446;" horiz-adv-x="974" d="M133 0v991h129v-885h410v885h131l-2 -885h108v-399h-86l-14 293h-676z" />
<glyph unicode="&#x447;" horiz-adv-x="872" d="M92 571v420h129v-381q0 -78 25.5 -111.5t85.5 -33.5q72 0 135 18.5t141 63.5v444h131l-2 -991h-129v440q-80 -42 -165 -63t-152 -21q-199 0 -199 215z" />
<glyph unicode="&#x448;" horiz-adv-x="1323" d="M133 0v991h127v-885h342v885h119v-885h344v885h125v-991h-1057z" />
<glyph unicode="&#x449;" horiz-adv-x="1363" d="M133 0v991h127v-885h342v885h117v-885h346v885h125v-885h110v-399h-88l-14 293h-1065z" />
<glyph unicode="&#x44a;" horiz-adv-x="1042" d="M43 887v104h412v-403h194q182 0 251 -66t69 -235q0 -172 -68 -235.5t-233 -63.5q-215 0 -340 12v887h-285zM455 94q51 -2 194 -2q105 0 145 40.5t40 160.5q0 112 -39 154t-146 42h-194v-395z" />
<glyph unicode="&#x44b;" horiz-adv-x="1179" d="M133 0v991h127v-403h197q175 0 241 -66t66 -235q0 -89 -16 -146.5t-52 -91.5t-88 -47.5t-131 -13.5q-215 0 -342 12h-2zM260 94q53 -2 197 -2q99 0 136.5 40.5t37.5 160.5q0 112 -36.5 154t-137.5 42h-197v-395zM918 0v991h129v-991h-129z" />
<glyph unicode="&#x44c;" horiz-adv-x="847" d="M133 0v991h127v-403h197q181 0 250 -66t69 -235q0 -89 -16.5 -146.5t-54.5 -91.5t-92 -47.5t-136 -13.5q-215 0 -342 12h-2zM260 94q53 -2 197 -2q104 0 144 40.5t40 160.5q0 112 -38.5 154t-145.5 42h-197v-395z" />
<glyph unicode="&#x44d;" horiz-adv-x="831" d="M70 16l12 93q117 -15 264 -15q142 0 198.5 78.5t59.5 284.5h-409v98l407 2q-6 189 -63 262.5t-193 73.5t-254 -14l-14 92q58 20 115 26.5t153 6.5q217 0 304 -113.5t87 -398.5q0 -282 -87.5 -396t-303.5 -114q-170 0 -276 34z" />
<glyph unicode="&#x44e;" horiz-adv-x="1306" d="M133 0v991h131v-428h207q6 174 43.5 272.5t112.5 140.5t204 42q144 0 224.5 -48t117.5 -159.5t37 -312.5q0 -198 -37 -308.5t-117.5 -158t-224.5 -47.5q-132 0 -208 44t-112.5 147.5t-39.5 285.5h-207v-461h-131zM598 500q0 -231 49.5 -318.5t181.5 -87.5q140 0 193 88 t53 318q0 231 -53 318t-193 87q-132 0 -181.5 -86.5t-49.5 -318.5z" />
<glyph unicode="&#x44f;" horiz-adv-x="892" d="M68 0l73 293q26 110 156 131v6q-184 19 -184 285q0 138 67 212t228 74q233 0 352 -14v-987h-129v381h-219q-123 0 -148 -117l-61 -264h-135zM242 694q0 -113 37.5 -164t138.5 -51h213v412q-57 2 -221 2q-97 0 -132.5 -48t-35.5 -151z" />
<glyph unicode="&#x451;" horiz-adv-x="888" d="M94 500q0 286 85 402t282 116q176 0 258 -76.5t82 -232.5q3 -277 -189 -277h-379q5 -134 33.5 -209.5t81 -105t141.5 -29.5q114 0 281 25l12 -88q-52 -23 -142 -36.5t-167 -13.5q-205 0 -292 120t-87 405zM231 535h349q94 0 90 172q0 105 -47.5 151.5t-155.5 46.5 q-131 0 -182 -80t-54 -290zM258 1249v113q0 39 37 39h43q37 0 37 -39v-113q0 -41 -37 -41h-43q-37 0 -37 41zM549 1249v113q0 39 39 39h43q37 0 37 -39v-113q0 -41 -37 -41h-43q-39 0 -39 41z" />
<glyph unicode="&#x452;" horiz-adv-x="960" d="M45 1024v80h125v330h131l2 -330h309v-80h-309v-203q0 -90 -10 -178q190 174 356 174q108 0 163.5 -69t55.5 -203v-594q0 -111 -39.5 -207.5t-109.5 -165.5l-74 57q92 137 92 316v561q0 99 -33 142.5t-110 43.5q-64 0 -130 -35.5t-163 -115.5v-547h-131v1024h-125z" />
<glyph unicode="&#x453;" horiz-adv-x="757" d="M129 0v786q0 101 44.5 155t129.5 54q287 0 418 -12l-4 -94h-359q-52 0 -75 -31.5t-23 -101.5v-756h-131zM334 1188l280 299l76 -98l-309 -263z" />
<glyph unicode="&#x454;" horiz-adv-x="831" d="M96 492q0 285 86.5 398.5t302.5 113.5q96 0 153.5 -6.5t115.5 -26.5l-15 -92q-118 14 -254 14t-192 -73.5t-62 -262.5l408 -2v-98h-410q4 -206 60.5 -284.5t195.5 -78.5q145 0 265 15l14 -93q-112 -34 -279 -34q-215 0 -302 114t-87 396z" />
<glyph unicode="&#x455;" horiz-adv-x="839" d="M86 748q0 89 17 143t58.5 82t94 37t141.5 8q187 -4 336 -31l-12 -94q-200 12 -305 12q-32 1 -58.5 0t-47.5 -3t-37 -9t-27 -17.5t-18 -28t-10 -41.5t-3 -58q0 -84 26.5 -117t90.5 -49l237 -58q97 -24 142 -84.5t45 -181.5q0 -73 -14 -123.5t-39 -81.5t-69.5 -48 t-94.5 -22.5t-125 -5.5q-166 0 -312 27l11 96q120 -15 276 -12q73 1 115 7t72.5 24.5t41.5 51t11 87.5q0 81 -31 114t-96 48l-234 57q-98 23 -140 85t-42 186z" />
<glyph unicode="&#x456;" horiz-adv-x="411" d="M133 1247v119q0 43 41 43h62q40 0 40 -43v-119q0 -43 -40 -43h-62q-41 0 -41 43zM141 0v991h129v-991h-129z" />
<glyph unicode="&#x457;" horiz-adv-x="409" d="M0 1249v113q0 39 35 39h45q37 0 37 -39v-113q0 -41 -37 -41h-45q-35 0 -35 41zM139 0v991h131v-991h-131zM291 1249v113q0 39 37 39h43q39 0 39 -39v-113q0 -41 -39 -41h-43q-37 0 -37 41z" />
<glyph unicode="&#x458;" horiz-adv-x="411" d="M49 -365q92 142 92 316v1040h129v-1040q0 -112 -39 -208.5t-110 -164.5zM135 1247v119q0 43 39 43h64q38 0 38 -43v-119q0 -43 -38 -43h-64q-39 0 -39 43z" />
<glyph unicode="&#x459;" horiz-adv-x="1318" d="M47 88q31 18 48 30t41 40t40 65q38 90 52 187t38 399q15 182 183 182h299v-391h186q177 0 244 -67.5t67 -239.5q0 -97 -17 -157.5t-57.5 -93t-93.5 -43.5t-139 -11q-195 0 -315 12v893h-142q-46 0 -69 -25t-27 -82q-22 -285 -37.5 -394t-52.5 -204q-29 -86 -92.5 -134 t-143.5 -58zM748 94l170 -2q58 0 91.5 6.5t58.5 28.5t34.5 62t9.5 108q0 116 -37.5 161.5t-140.5 45.5h-186v-410z" />
<glyph unicode="&#x45a;" horiz-adv-x="1331" d="M133 0v991h121v-395h383v395h123v-393h186q178 0 244.5 -67t66.5 -236q0 -177 -65 -242t-225 -65q-208 0 -330 12v500h-383v-500h-121zM760 94l186 -2q101 0 139.5 41t38.5 164q0 116 -37.5 160.5t-140.5 44.5h-186v-408z" />
<glyph unicode="&#x45b;" horiz-adv-x="960" d="M45 1024v80h125v330h131l2 -330h309v-80h-309v-203q0 -90 -10 -178q190 174 356 174q108 0 163.5 -69t55.5 -203v-545h-131v512q0 100 -32.5 143t-110.5 43q-64 0 -130 -35.5t-163 -115.5v-547h-131v1024h-125z" />
<glyph unicode="&#x45c;" horiz-adv-x="880" d="M133 0v991h131v-307q0 -65 -8 -117h117q28 0 52 7t45 22.5t38 32.5t34 47t29.5 55t28 67t26 73t27.5 81l4.5 13.5l4 12l4.5 13.5h133q-73 -217 -96 -270q-61 -139 -140 -181q-33 -17 -71 -22v-4q108 -11 175 -114q49 -75 116 -279q7 -19 20 -61l20 -60h-137 q-77 232 -103 291q-54 123 -125 157q-35 16 -79 17h-125q10 -62 10 -105v-360h-131zM354 1188l281 299l76 -98l-310 -263z" />
<glyph unicode="&#x45d;" horiz-adv-x="966" d="M133 0v991h119v-690q0 -45 -4 -135h4q6 15 55 117l393 708h134v-991h-119v692q0 37 4 135h-4q-10 -30 -56 -114l-393 -713h-133zM207 1389l76 98l280 -299l-47 -62z" />
<glyph unicode="&#x45e;" horiz-adv-x="870" d="M35 991h139l219 -774q31 -114 31 -115h22q28 90 35 117l215 772h142l-324 -1061q-64 -203 -152 -282q-109 -93 -290 -64l12 88q129 -7 195 54q59 59 112 219l21 55h-35q-37 0 -49 35zM190 1434h101q0 -94 38 -144.5t107 -50.5q68 0 106 51t38 144h100 q5 -118 -61.5 -194.5t-182.5 -76.5q-117 0 -184.5 77t-61.5 194z" />
<glyph unicode="&#x45f;" horiz-adv-x="952" d="M133 0v991h129l4 -885h422v885h131v-991h-289l-10 -340h-88l-12 340h-287z" />
<glyph unicode="&#x490;" horiz-adv-x="860" d="M141 0v1169q0 107 58 176.5t147 69.5q254 0 375 -10l14 317h88v-329l-6 -93h-428q-113 0 -113 -153v-1147h-135z" />
<glyph unicode="&#x491;" horiz-adv-x="761" d="M131 0v786q0 102 44 155.5t130 53.5q214 0 316 -6l16 303h86v-309l-6 -94h-359q-51 0 -74.5 -32t-23.5 -101v-756h-129z" />
<glyph unicode="&#x4b0;" horiz-adv-x="952" d="M31 1413h145l244 -627q18 -45 53 -151h12q15 52 52 149l243 629h142l-357 -858h230v-84h-250v-471h-133v471h-250v84h229z" />
<glyph unicode="&#x4b1;" horiz-adv-x="958" d="M35 991h143l244 -618q10 -25 27.5 -77.5t25.5 -74.5h10q35 108 54 152l243 618h142l-357 -854h230v-86h-250v-469h-133v469h-252v86h231z" />
<glyph unicode="&#x4b6;" horiz-adv-x="1071" d="M100 838v575h138v-549q-2 -116 37.5 -167.5t130.5 -51.5q90 0 166.5 28.5t175.5 100.5v639h137v-1317h133v-405h-94l-15 309h-161v659q-190 -133 -388 -133q-132 0 -196 77.5t-64 234.5z" />
<glyph unicode="&#x4b7;" horiz-adv-x="911" d="M92 571v420h129v-381q0 -78 25.5 -111.5t85.5 -33.5q72 0 135 18.5t141 63.5v444h131l-2 -885h109v-399h-86l-15 293h-137v440q-80 -42 -165 -63t-152 -21q-199 0 -199 215z" />
<glyph unicode="&#x4ba;" horiz-adv-x="1030" d="M147 0v1413h136v-657q95 66 197.5 98.5t189.5 32.5q132 0 196 -77.5t64 -234.5v-575h-135v549q0 116 -40 167.5t-130 51.5q-89 0 -168 -29t-174 -100v-639h-136z" />
<glyph unicode="&#x4c0;" horiz-adv-x="430" d="M147 0v1413h136v-1413h-136z" />
<glyph unicode="&#x2000;" horiz-adv-x="951" />
<glyph unicode="&#x2001;" horiz-adv-x="1903" />
<glyph unicode="&#x2002;" horiz-adv-x="951" />
<glyph unicode="&#x2003;" horiz-adv-x="1903" />
<glyph unicode="&#x2004;" horiz-adv-x="634" />
<glyph unicode="&#x2005;" horiz-adv-x="475" />
<glyph unicode="&#x2006;" horiz-adv-x="317" />
<glyph unicode="&#x2007;" horiz-adv-x="317" />
<glyph unicode="&#x2008;" horiz-adv-x="237" />
<glyph unicode="&#x2009;" horiz-adv-x="380" />
<glyph unicode="&#x200a;" horiz-adv-x="105" />
<glyph unicode="&#x2010;" horiz-adv-x="745" d="M121 465v102h504v-102h-504z" />
<glyph unicode="&#x2011;" horiz-adv-x="745" d="M121 465v102h504v-102h-504z" />
<glyph unicode="&#x2012;" horiz-adv-x="745" d="M121 465v102h504v-102h-504z" />
<glyph unicode="&#x2013;" horiz-adv-x="978" d="M121 465v102h737v-102h-737z" />
<glyph unicode="&#x2014;" horiz-adv-x="1482" d="M121 465v102h1241v-102h-1241z" />
<glyph unicode="&#x2018;" horiz-adv-x="354" d="M113 1087v125q3 156 53 283l61 -18q-14 -109 -14 -230q16 0 26 -11.5t9 -29.5v-119q-2 -26 -13.5 -37.5t-37.5 -11.5h-37q-26 0 -36.5 11t-10.5 38z" />
<glyph unicode="&#x2019;" horiz-adv-x="350" d="M106 1313v119q1 26 13 37.5t37 11.5h39q26 0 35.5 -11t9.5 -38v-125q-3 -153 -52 -285l-63 18q16 107 16 230q-17 0 -26.5 11.5t-8.5 31.5z" />
<glyph unicode="&#x201a;" horiz-adv-x="374" d="M117 43v119q1 26 14 37.5t39 11.5h39q26 0 36.5 -11t10.5 -38v-125q-3 -161 -55 -285l-64 19q17 113 17 229q-37 0 -37 43z" />
<glyph unicode="&#x201c;" horiz-adv-x="600" d="M113 1087v125q3 153 51 283l63 -18q-14 -109 -14 -230q38 0 35 -41v-119q-2 -25 -12.5 -36t-36.5 -11h-41q-26 0 -35.5 11t-9.5 36zM356 1087v125q3 154 54 283l63 -18q-14 -109 -14 -230q16 0 25.5 -10.5t9.5 -30.5v-119q-2 -25 -14 -36t-38 -11h-39q-27 0 -37 10.5 t-10 36.5z" />
<glyph unicode="&#x201d;" horiz-adv-x="593" d="M106 1313v119q1 26 13 37.5t37 11.5h39q26 0 35.5 -11t9.5 -38v-125q-3 -153 -52 -285l-63 18q16 107 16 230q-17 0 -26.5 11.5t-8.5 31.5zM350 1313v119q2 26 13.5 37.5t37.5 11.5h37q27 0 37 -11t10 -38v-125q-3 -158 -53 -285l-61 18q16 128 16 230q-37 0 -37 43z" />
<glyph unicode="&#x201e;" horiz-adv-x="618" d="M117 43v119q2 26 13.5 37.5t37.5 11.5h37q27 0 37 -11t10 -38v-125q-3 -158 -53 -285l-62 19q15 120 15 229q-15 0 -25 11.5t-10 31.5zM362 43v119q0 49 50 49h39q26 0 35.5 -11t9.5 -38v-125q-3 -153 -52 -285l-63 19q16 107 16 229q-17 0 -26.5 11.5t-8.5 31.5z" />
<glyph unicode="&#x2020;" horiz-adv-x="745" d="M72 874v117h217v-100zM313 -225l4 1136v72l-4 432h121l-8 -432v-72l6 -1136h-119zM457 891v100h215v-117z" />
<glyph unicode="&#x2021;" horiz-adv-x="804" d="M102 199v116l215 -16v-100h-215zM102 874v117h215v-100zM342 -225l6 426v788l-6 426h121l-6 -426v-788l6 -426h-121zM485 199v100l217 16v-116h-217zM485 891v100h217v-117z" />
<glyph unicode="&#x2022;" horiz-adv-x="595" d="M152 539v22q0 88 30 123t109 35h20q74 0 103.5 -35t29.5 -123v-22q0 -90 -29.5 -126t-103.5 -36h-20q-79 0 -109 35.5t-30 126.5z" />
<glyph unicode="&#x2026;" horiz-adv-x="1382" d="M117 51v117q0 28 11 39.5t38 11.5h43q27 0 38 -11.5t11 -39.5v-117q0 -28 -11 -39.5t-38 -11.5h-43q-27 0 -38 11.5t-11 39.5zM621 51v117q0 28 11 39.5t38 11.5h43q26 0 37.5 -11.5t11.5 -39.5v-117q0 -28 -11.5 -39.5t-37.5 -11.5h-43q-27 0 -38 11.5t-11 39.5z M1124 51v117q0 28 11 39.5t39 11.5h43q28 0 39.5 -11.5t11.5 -39.5v-117q0 -28 -11.5 -39.5t-39.5 -11.5h-43q-28 0 -39 11.5t-11 39.5z" />
<glyph unicode="&#x202f;" horiz-adv-x="380" />
<glyph unicode="&#x2030;" horiz-adv-x="2082" d="M80 1020q0 224 59 321t203 97q146 0 205 -96.5t59 -321.5t-59 -321.5t-205 -96.5q-144 0 -203 97t-59 321zM180 1020q0 -185 35.5 -259.5t126.5 -74.5t126.5 74.5t35.5 259.5q0 184 -35.5 259t-126.5 75t-126.5 -75t-35.5 -259zM315 0l742 1413h94l-741 -1413h-95z M866 401q0 225 58.5 322.5t203.5 97.5q144 0 203.5 -97.5t59.5 -322.5q0 -224 -59 -320.5t-204 -96.5t-203.5 96t-58.5 321zM967 401q0 -185 34 -259t125 -74q93 0 128.5 74.5t35.5 258.5t-35.5 259t-128.5 75q-91 0 -125 -74.5t-34 -259.5zM1477 401q0 225 58.5 322.5 t203.5 97.5q144 0 203 -97.5t59 -322.5q0 -224 -59 -320.5t-203 -96.5q-145 0 -203.5 96t-58.5 321zM1577 401q0 -183 35 -258t125 -75q93 0 128.5 74.5t35.5 258.5t-35.5 259t-128.5 75q-90 0 -125 -75t-35 -259z" />
<glyph unicode="&#x2039;" horiz-adv-x="458" d="M57 498v32l265 406l67 -45l-211 -377l213 -383l-67 -45z" />
<glyph unicode="&#x203a;" horiz-adv-x="462" d="M68 131l213 383l-211 377l67 45l266 -406v-32l-266 -412z" />
<glyph unicode="&#x2044;" horiz-adv-x="262" d="M-287 0l742 1413h94l-742 -1413h-94z" />
<glyph unicode="&#x205f;" horiz-adv-x="475" />
<glyph unicode="&#x20ac;" horiz-adv-x="1052" d="M90 545v86h137v76q0 75 2 112h-139v86h146q24 270 128 401.5t314 131.5q157 0 270 -39l-14 -103q-131 26 -264 21q-136 -4 -205 -104.5t-88 -307.5h424l-10 -86h-420q-2 -37 -2 -114v-74h364l-10 -86h-350q15 -225 85 -335t212 -114q154 -3 282 25l15 -103 q-121 -43 -289 -43q-217 0 -321.5 140t-125.5 430h-141z" />
<glyph unicode="&#x2122;" horiz-adv-x="1587" d="M113 1343v82h532v-82h-219v-696h-96v696h-217zM727 647l27 737q3 41 37 41h98q29 0 39 -32l131 -484q6 -21 14 -61t10 -47h21q15 69 26 110l127 482q11 32 39 32h103q39 0 39 -41l24 -737h-88l-26 703h-21l-156 -586q-9 -31 -41 -31h-73q-30 0 -39 31l-158 586h-20 l-25 -703h-88z" />
<glyph unicode="&#x2202;" horiz-adv-x="944" d="M92 457q8 211 95.5 334t248.5 122q173 0 271 -163q4 123 -2.5 210.5t-29 155t-57.5 109t-93 67.5t-130.5 36t-175.5 9v101q145 1 242 -15t178.5 -61.5t124.5 -130t63 -217.5t11 -326q-6 -131 -20.5 -234.5t-44 -195.5t-73 -152.5t-109.5 -95.5t-151 -35 q-80 0 -142.5 26.5t-102 71.5t-64 107.5t-33.5 130.5t-6 146zM223 457q-3 -105 17 -184.5t71.5 -130t130.5 -50.5q59 0 103 30.5t71 79.5t45.5 126.5t27 154t13.5 179.5q-104 141 -241 141q-114 0 -173.5 -92t-64.5 -254z" />
<glyph unicode="&#x220f;" horiz-adv-x="1191" d="M66 1303v110h1060v-110h-174v-1520h-131v1520h-450v-1520h-131v1520h-174z" />
<glyph unicode="&#x2211;" horiz-adv-x="970" d="M82 -94l299 817l-279 580v110h766v-110h-618l278 -580l-301 -817h658v-111h-803v111z" />
<glyph unicode="&#x221a;" horiz-adv-x="927" d="M57 991h113l182 -899h23l401 1702h113l-428 -1778q-6 -16 -23 -16h-151q-21 0 -21 16z" />
<glyph unicode="&#x221e;" horiz-adv-x="1288" d="M102 639q0 132 66 200t170 68q169 0 307 -202q148 202 318 202q96 0 159.5 -68.5t63.5 -199.5q0 -137 -69.5 -214t-174.5 -77q-91 0 -162 54.5t-133 140.5q-149 -195 -303 -195q-103 0 -172.5 77t-69.5 214zM215 635q0 -92 40 -140.5t110 -48.5t119 44t108 135 q-33 49 -51 73.5t-48.5 55t-63 43t-73.5 12.5q-141 0 -141 -174zM698 618q19 -34 37 -58.5t46 -53.5t65 -44.5t80 -15.5q69 0 108 49t39 142q0 172 -135 172q-33 0 -64 -12.5t-52.5 -28t-47.5 -45.5t-39 -49t-37 -56z" />
<glyph unicode="&#x222b;" horiz-adv-x="614" d="M55 -446l11 94h104q64 0 91 43t24 147l-74 1352q-6 134 41.5 203t144.5 69q87 0 160 -8l-10 -94h-107q-63 0 -89.5 -43t-22.5 -146l73 -1353q8 -138 -37 -205.5t-153 -67.5q-101 0 -156 9z" />
<glyph unicode="&#x2248;" horiz-adv-x="970" d="M127 291q-11 121 31.5 173.5t126.5 49.5q49 -1 121.5 -32t147 -61.5t126.5 -31.5q40 -2 56 21.5t16 93.5h90q12 -111 -27 -164.5t-131 -52.5q-53 1 -127.5 32t-146.5 62t-119 33q-42 0 -58 -24.5t-16 -98.5h-90zM127 682q-11 120 31.5 172.5t126.5 50.5q49 -1 121.5 -32 t147 -61.5t126.5 -31.5q40 -2 56 21t16 94h90q12 -111 -27 -164.5t-131 -52.5q-54 0 -127.5 31t-146 62.5t-119.5 33.5q-41 0 -57.5 -25t-16.5 -98h-90z" />
<glyph unicode="&#x2260;" horiz-adv-x="964" d="M123 332v100h227l166 332h-393v100h442l111 221l43 -24l-98 -197h221v-100h-271l-165 -332h436v-100h-488l-127 -254l-41 24l115 230h-178z" />
<glyph unicode="&#x2264;" horiz-adv-x="937" d="M117 180v99h704v-99h-704zM133 674v106l672 297v-106l-555 -244l555 -217v-107z" />
<glyph unicode="&#x2265;" horiz-adv-x="937" d="M117 180v99h704v-99h-704zM133 403v105l555 219l-555 244v106l672 -297v-106z" />
<glyph unicode="&#x25ca;" horiz-adv-x="952" d="M61 692q-8 16 0 33l402 692q13 19 26 0l400 -692q11 -17 0 -33l-400 -696q-13 -20 -26 0zM168 709l309 -582l305 582l-305 577z" />
<glyph unicode="&#x25fc;" horiz-adv-x="993" d="M0 0v993h993v-993h-993z" />
</font>
</defs>
</svg>
